<svg id="ISLAMIC_PATTERN" enable-background="new 0 0 64 64" height="512" viewBox="0 0 64 64" width="512" xmlns="http://www.w3.org/2000/svg"><path d="m17.2011719 47.5488281h8.3583984l5.9101563 5.9101563c.1464843.1464844.3383789.2197265.5302734.2197265s.3837891-.0732422.5302734-.2197266l5.9101563-5.9101563h8.3583984c.4140625 0 .75-.3359375.75-.75v-8.3583984l5.9101563-5.9101563c.2929688-.2929688.2929688-.7675781 0-1.0605469l-5.9101563-5.9101563v-8.3583984c0-.4140625-.3359375-.75-.75-.75h-8.3583984l-5.9101563-5.9101563c-.2929688-.2929688-.7675781-.2929688-1.0605469 0l-5.9101563 5.9101563h-8.3583984c-.4140625 0-.75.3359375-.75.75v3.159668c0 .4140625.3359375.75.75.75s.75-.3359375.75-.75v-2.409668h7.9189453c.1987305 0 .3896484-.0791016.5302734-.2197266l5.5996095-5.5996092 5.5996094 5.5996094c.140625.140625.331543.2197266.5302734.2197266h7.9189453v7.9189453c0 .1987305.0791016.3896484.2197266.5302734l5.5996094 5.5996094-5.5996094 5.5996094c-.140625.140625-.2197266.331543-.2197266.5302734v7.9189453h-7.9189453c-.1987305 0-.3896484.0791016-.5302734.2197266l-5.5996094 5.5996094-5.5996094-5.5996094c-.140625-.140625-.331543-.2197266-.5302734-.2197266h-7.9189453v-7.9189453c0-.1987305-.0791016-.3896484-.2197266-.5302734l-5.5996094-5.5996094 5.5996094-5.5996094c.140625-.140625.2197266-.331543.2197266-.5302734v-2.5092773c0-.4140625-.3359375-.75-.75-.75s-.75.3359375-.75.75v2.1987305l-5.9101563 5.9101563c-.2929688.2929688-.2929688.7675781 0 1.0605469l5.9101563 5.9101563v8.3583984c0 .4140623.3359375.7499998.75.7499998z"/><path d="m60.5302734 31.4697266-7.9814453-7.9814453v-11.2871094c0-.4140625-.3359375-.75-.75-.75h-11.2871093l-7.9814453-7.9814453c-.2929688-.2929688-.7675781-.2929688-1.0605469 0l-7.9814453 7.9814453h-11.2871094c-.4140625 0-.75.3359375-.75.75v11.2871094l-7.9814453 7.9814453c-.2929688.2929688-.2929688.7675781 0 1.0605469l7.9814453 7.9814453v11.2871094c0 .4140625.3359375.75.75.75h11.2871094l7.9814453 7.9814453c.1464843.1464843.3383789.2197265.5302734.2197265s.3837891-.0732422.5302734-.2197266l7.9814453-7.9814453h11.2871094c.4140625 0 .75-.3359375.75-.75v-4.3925781c0-.4140625-.3359375-.75-.75-.75s-.75.3359375-.75.75v3.6425781h-10.8476562c-.1987305 0-.3896484.0791016-.5302734.2197266l-7.6708985 7.6708984-7.6708984-7.6708984c-.140625-.140625-.331543-.2197266-.5302734-.2197266h-10.8476563v-10.8476562c0-.1987305-.0791016-.3896484-.2197266-.5302734l-7.6708984-7.6708985 7.6708984-7.6708984c.140625-.140625.2197266-.331543.2197266-.5302734v-10.8476563h10.8476563c.1987305 0 .3896484-.0791016.5302734-.2197266l7.6708984-7.6708984 7.6708984 7.6708984c.140625.140625.331543.2197266.5302734.2197266h10.8476563v10.8476563c0 .1987305.0791016.3896484.2197266.5302734l7.6708984 7.6708984-7.6708984 7.6708984c-.140625.140625-.2197266.331543-.2197266.5302734v4.2050782c0 .4140625.3359375.75.75.75s.75-.3359375.75-.75v-3.8945313l7.9814453-7.9814453c.2929688-.2929687.2929688-.7675781 0-1.0605468z"/></svg>