<svg clip-rule="evenodd" fill-rule="evenodd" stroke-linejoin="round" stroke-miterlimit="1.414" viewBox="0 0 512 512" xmlns="http://www.w3.org/2000/svg" xmlns:xlink="http://www.w3.org/1999/xlink" xmlns:serif="http://www.serif.com/"><clipPath id="_clip1"><path id="_41" clip-rule="evenodd" d="m0 0h512v512h-512z"/></clipPath><path id="_4" d="m0 0h512v512h-512z" fill="none"/><g clip-path="url(#_clip1)"><path d="m194.185 381.167h-58.491l-1.861-.37-1.577-1.053c-1.046-1.566-1.056-1.59-1.423-3.438v-58.491c.367-1.847.377-1.871 1.423-3.437l12.157-12.157h-17.192l-1.861-.37-1.577-1.054-41.359-41.36c-1.112-1.663-1.775-3.556-1.054-5.297.242-.584.703-1.052 1.054-1.577l41.359-41.36 1.577-1.054 1.861-.37h17.192l-12.157-12.157c-1.046-1.566-1.056-1.589-1.423-3.437v-58.491c.123-.62.128-1.277.37-1.861.666-1.609 1.266-1.719 2.63-2.63l1.861-.37h58.491l1.86.37 1.577 1.053 12.157 12.157v-17.192l.37-1.861 1.054-1.577 41.36-41.359 1.577-1.054 1.86-.37 1.86.37 1.577 1.054 41.36 41.359 1.054 1.577.37 1.861v17.192l12.157-12.157 1.577-1.053 1.86-.37h58.491l1.861.37c.525.351 1.051.702 1.577 1.053 1.046 1.567 1.056 1.59 1.423 3.438v58.491c-.367 1.847-.377 1.871-1.423 3.437l-12.157 12.157h17.192l1.861.37 1.577 1.054 41.359 41.36c1.112 1.663 1.775 3.556 1.054 5.297-.242.584-.703 1.052-1.054 1.577l-41.359 41.36c-1.566 1.046-1.59 1.056-3.438 1.424h-17.192l12.157 12.157 1.053 1.577.37 1.86v58.491c-.367 1.848-.377 1.872-1.423 3.438l-1.577 1.053-1.861.37h-58.491c-1.848-.367-1.871-.377-3.437-1.423l-12.157-12.157v17.192l-.37 1.861-1.054 1.577-41.36 41.359-1.577 1.054-1.86.37-1.86-.37-1.577-1.054-41.36-41.359-1.054-1.577-.37-1.861v-17.192l-12.157 12.157-1.577 1.053zm98.313-23.541-33.061 33.061c-1.663 1.112-3.556 1.775-5.297 1.054-.584-.242-1.052-.703-1.577-1.054l-33.061-33.061v25.14l36.498 36.498 36.498-36.498zm-74.94-13.68 1.86.371 1.577 1.053 35.005 35.005 35.005-35.005 1.577-1.053 1.86-.371h49.504v-49.504l.371-1.86 1.053-1.577 35.005-35.005-35.005-35.005-1.053-1.577-.371-1.86v-49.504h-49.504l-1.86-.371-1.577-1.053-35.005-35.005c-11.668 11.668-23.337 23.336-35.005 35.005-1.566 1.046-1.589 1.056-3.437 1.424h-49.504v49.504l-.371 1.86-1.053 1.577-35.005 35.005 35.005 35.005 1.053 1.577.371 1.86v49.504zm-59.227-41.894-17.776 17.777v51.616h51.616l17.777-17.776h-46.756l-1.86-.37c-1.364-.912-1.964-1.022-2.631-2.631-.242-.584-.246-1.24-.37-1.86zm195.338 0v46.756l-.37 1.86c-1.047 1.566-1.065 1.584-2.631 2.631l-1.86.37h-46.756l17.777 17.776h51.616v-51.616zm-96.909-126.933c.916.194 1.43.241 2.677 1.364l20.86 20.859h29.5s4.654.922 4.861 4.861v29.5l20.859 20.86s2.64 3.943 0 6.874l-20.859 20.86v29.5s-.922 4.654-4.861 4.861h-29.5l-20.86 20.859s-3.943 2.639-6.874 0l-20.86-20.859h-29.5s-4.654-.922-4.861-4.861v-29.5l-20.859-20.86s-2.639-3.943 0-6.874l20.859-20.86v-29.5s.923-4.654 4.861-4.861h29.5l20.86-20.859s2.281-1.566 4.197-1.364zm-19.606 30.522c-1.511 1.37-1.653 1.336-3.437 1.424h-26.652v26.652s-.335 2.235-1.424 3.437l-18.846 18.846 18.846 18.846s1.344 1.817 1.424 3.437v26.653h26.652s1.648.115 2.7.819c.354.236.423.32.737.604l18.846 18.846 18.846-18.846s1.817-1.344 3.437-1.423h26.652v-26.653s.335-2.235 1.424-3.437l18.846-18.846-18.846-18.846s-1.083-1.247-1.33-2.489c-.083-.417-.073-.525-.094-.948v-26.652h-26.652s-2.235-.335-3.437-1.424l-18.846-18.846c-6.282 6.282-12.564 12.564-18.846 18.846zm120.472 13.861 33.061 33.061 1.054 1.577.37 1.86-.37 1.86-1.054 1.577-33.061 33.061h25.14l36.498-36.498-36.498-36.498zm-203.252 0h-25.14l-36.498 36.498 36.498 36.498h25.14l-33.061-33.061-1.054-1.577-.37-1.86.37-1.86 1.054-1.577zm199.295-9.554 17.776-17.777v-51.616h-51.616l-17.777 17.776h46.756l1.86.37c1.364.912 1.964 1.022 2.631 2.631.242.584.246 1.24.37 1.86zm-143.721-51.617-17.777-17.776h-51.616v51.616l17.776 17.777v-46.756l.37-1.86c1.047-1.566 1.065-1.584 2.631-2.631l1.86-.37zm82.55-3.957v-25.14l-36.498-36.498-36.498 36.498v25.14l33.061-33.061c1.566-1.047 1.589-1.056 3.437-1.424.62.123 1.24.247 1.86.37l1.577 1.054z"/></g></svg>