<svg id="Master_Line" enable-background="new 0 0 512 512" viewBox="0 0 512 512" xmlns="http://www.w3.org/2000/svg"><path d="m508.69 256-68.95-68.95-5.06-5.06v-7.16-97.5h-97.5-7.16l-5.06-5.06-68.96-68.96-37 37.01-31.94 31.94-5.06 5.06h-7.16-97.5v97.5 7.16l-5.06 5.06-68.97 68.96 68.95 68.95 5.06 5.06v7.16 97.5h97.5 7.16l74.02 74.02 74.01-74.01h7.16 97.5v-97.5-7.16l5.06-5.06zm-193.44 143.05-38.1-38.1 5.59-5.59v-34.8l24.61 24.61h7.9zm-204.25-53.88h55.83v55.83h-55.83zm85.75-232.22 38.1 38.1-5.59 5.59v34.8l-24.61-24.61h-7.9zm30.43-69.51 28.82-28.81 57.63 57.63-12.5 12.5-45.13-45.14-45.13 45.13-12.5-12.5zm28.82 7.5 39.48 39.48-39.48 39.47-39.48-39.48zm145 115.89h-55.83v-55.83h55.83zm-24.55 83.51-9.84-9.84 39.48-39.48 9.84 9.84zm-39.28 64.91h-21.92v21.92h-4.59l-27.92-27.92v-26.51h26.51l27.92 27.92zm0 8v13.92h-13.92v-13.92zm-62.43 28.8-3.25 3.25-15.49-15.5-15.5 15.5-3.25-3.25v-39.49l18.75-18.74 18.74 18.74zm-8.9 8.9-9.84 9.84-9.84-9.84 9.84-9.84zm-91.01-37.7h13.92v13.92h-13.92zm0-8v-4.59l27.92-27.92h26.51v26.51l-27.92 27.92h-4.59v-21.92zm-2.63-59.25-15.5-15.5 3.25-3.25h39.49l18.74 18.75-18.74 18.74h-39.49l-3.25-3.25zm-21.15 9.84-9.84-9.84 9.84-9.84 9.84 9.84zm23.78-69.09h21.92v-21.92h4.59l27.92 27.92v26.51h-26.51l-27.92-27.92zm0-8v-13.92h13.92v13.92zm-18.19 93.99h34.8l-24.61 24.61v7.91h-53.88l38.1-38.1zm99.36-.23-18.74 18.74v-26.51h-26.51l18.74-18.74-18.74-18.74h26.51v-26.51l18.74 18.74 18.74-18.74v26.51h26.51l-18.74 18.74 18.74 18.74h-26.51v26.51zm-18.74-122.56 3.25-3.25 15.5 15.5 15.5-15.5 3.25 3.25v39.49l-18.76 18.74-18.74-18.74zm28.58-8.9-9.84 9.84-9.84-9.84 9.84-9.84zm71.33 37.7h-13.92v-13.92h13.92zm0 8v4.59l-27.92 27.92h-26.51v-26.51l27.92-27.92h4.59v21.92zm18.19 32.51h-34.8l24.61-24.61v-7.91h53.88l-38.1 38.1zm-61.54 26.74 18.74-18.74h39.49l3.25 3.25-15.5 15.49 15.5 15.5-3.25 3.25h-39.49zm57.29 0 9.84-9.84 9.84 9.84-9.84 9.84zm49.89-67.25h-55.83v-13.92h55.83zm-63.83-21.92h-13.92v-55.83h13.92zm-21.92 0h-7.9l-24.61 24.61v-34.8l-5.59-5.59 38.1-38.1zm-43.75-21.44-9.84-9.84 39.48-39.48 9.84 9.84zm-21.16-9.84-9.84 9.84-39.48-39.48 9.84-9.84zm-61.59 31.28h-13.92v-55.83h13.92zm-21.92 0h-55.83v-55.83h55.83zm0 8v13.92h-55.83v-13.92zm0 21.92v7.91l24.61 24.61h-34.8l-5.59 5.59-38.1-38.1h53.88zm-60.92 4.28 39.48 39.48-9.84 9.84-39.48-39.48zm23.98 54.97-39.48 39.48-39.47-39.48 39.48-39.48zm5.66 5.66 9.84 9.84-39.48 39.48-9.84-9.84zm-24.55 61.59h55.83v13.92h-55.83zm63.83 21.92h13.92v55.83h-13.92zm21.92 0h7.9l24.61-24.61v34.8l5.59 5.59-38.1 38.1zm43.75 21.44 9.84 9.84-39.48 39.48-9.84-9.84zm15.5 15.5 39.48 39.48-39.48 39.47-39.48-39.48zm5.66-5.66 9.84-9.84 39.48 39.48-9.84 9.84zm61.59-31.28h13.92v55.83h-13.92zm21.92-8v-13.92h55.83v13.92zm55.83 8v55.83h-55.83v-55.83zm-55.83-29.92v-7.91l-24.61-24.61h34.8l5.59-5.59 38.1 38.1h-53.88zm60.92-4.28-39.48-39.48 9.84-9.84 39.48 39.48zm-23.98-54.97 39.48-39.48 39.47 39.48-39.48 39.48zm90.26 0-45.13-45.13 12.5-12.5 57.63 57.63-57.63 57.63-12.5-12.5zm-38.29-63.29-12.5 12.5-12.58-12.59v-17.8h17.68v10.48zm-7.4-107.38v81.5h-17.68v-63.83h-63.83v-17.67zm-99.98 0h10.47v17.67h-17.8l-12.58-12.58 12.5-12.5zm-141.4 0 7.41-7.41 12.5 12.5-12.58 12.58h-17.8v-17.67zm-99.98 0h81.5v17.67h-63.82v63.83h-17.68zm0 99.97v-10.48h17.68v17.8l-12.58 12.58-12.5-12.5zm-13.06 13.07 12.5 12.5-45.13 45.13 45.13 45.13-12.5 12.5-57.63-57.63zm5.66 120.92 12.5-12.5 12.58 12.59v17.8h-17.68v-10.48zm7.4 107.38v-81.5h17.68v63.83h63.83v17.67zm89.51 0v-17.67h17.8l12.58 12.58-12.5 12.5-7.41-7.41zm23.54 13.07 12.5-12.5 45.13 45.14 45.13-45.13 12.5 12.5-57.63 57.62zm128.33-13.07-7.41 7.41-12.5-12.5 12.58-12.58h17.8v17.67zm99.98 0h-81.5v-17.67h63.82v-63.83h17.68zm0-99.97v10.48h-17.68v-17.8l12.58-12.58 12.5 12.5z"/></svg>