<svg id="Master_Line" enable-background="new 0 0 512 512" viewBox="0 0 512 512" xmlns="http://www.w3.org/2000/svg"><g><path d="m500.17 247.51-64.34-64.34c-.76-.76-1.17-1.76-1.17-2.83v-91c0-6.62-5.38-12-12-12h-91c-1.07 0-2.07-.42-2.83-1.17l-64.34-64.34c-4.68-4.68-12.29-4.68-16.97 0l-64.34 64.34c-.76.76-1.76 1.17-2.83 1.17h-91c-6.62 0-12 5.38-12 12v91c0 1.07-.42 2.07-1.17 2.83l-64.34 64.34c-4.68 4.68-4.68 12.29 0 16.97l64.34 64.34c.76.76 1.17 1.76 1.17 2.83v91c0 6.62 5.38 12 12 12h91c1.07 0 2.07.42 2.83 1.17l64.34 64.34c2.34 2.34 5.41 3.51 8.49 3.51s6.15-1.17 8.49-3.51l64.34-64.34c.76-.76 1.76-1.17 2.83-1.17h91c6.62 0 12-5.38 12-12v-91c0-1.07.42-2.07 1.17-2.83l64.34-64.34c4.67-4.67 4.67-12.29-.01-16.97zm-5.66 11.32-64.34 64.34c-2.27 2.27-3.51 5.28-3.51 8.49v91c0 2.21-1.79 4-4 4h-91c-3.21 0-6.22 1.25-8.49 3.51l-64.34 64.34c-1.56 1.56-4.1 1.56-5.66 0l-64.34-64.34c-2.27-2.27-5.28-3.51-8.49-3.51h-91c-2.21 0-4-1.79-4-4v-91c0-3.21-1.25-6.22-3.51-8.49l-64.34-64.34c-1.56-1.56-1.56-4.1 0-5.66l64.34-64.34c2.27-2.27 3.51-5.28 3.51-8.49v-91c0-2.21 1.79-4 4-4h91c3.21 0 6.22-1.25 8.49-3.51l64.34-64.34c1.56-1.56 4.1-1.56 5.66 0l64.34 64.34c2.27 2.27 5.28 3.51 8.49 3.51h91c2.21 0 4 1.79 4 4v91c0 3.21 1.25 6.22 3.51 8.49l64.34 64.34c1.56 1.56 1.56 4.1 0 5.66z"/><path d="m347.55 176.45h51.83c6.62 0 12-5.38 12-12v-51.83c0-6.62-5.38-12-12-12h-51.83c-6.62 0-12 5.38-12 12v51.83c0 6.61 5.39 12 12 12zm-4-63.83c0-2.21 1.79-4 4-4h51.83c2.21 0 4 1.79 4 4v51.83c0 2.21-1.79 4-4 4h-51.83c-2.21 0-4-1.79-4-4z"/><path d="m247.51 135.01c2.27 2.27 5.28 3.51 8.49 3.51s6.22-1.25 8.49-3.51l36.65-36.65c2.27-2.27 3.51-5.28 3.51-8.49s-1.25-6.22-3.52-8.49l-36.65-36.65c-2.27-2.27-5.28-3.51-8.49-3.51s-6.22 1.25-8.49 3.51l-36.65 36.65c-2.27 2.27-3.52 5.28-3.52 8.49s1.25 6.22 3.51 8.49zm-30.99-47.97 36.65-36.65c.76-.76 1.76-1.17 2.83-1.17s2.07.42 2.83 1.17l36.65 36.65c.76.76 1.17 1.76 1.17 2.83s-.42 2.07-1.17 2.83l-36.65 36.65c-.76.76-1.76 1.17-2.83 1.17s-2.07-.42-2.83-1.17l-36.65-36.65c-.76-.76-1.17-1.76-1.17-2.83s.42-2.07 1.17-2.83z"/><path d="m264.49 376.99c-2.27-2.27-5.28-3.51-8.49-3.51s-6.22 1.25-8.49 3.51l-36.65 36.65c-2.27 2.27-3.51 5.28-3.51 8.49s1.25 6.22 3.51 8.49l36.65 36.65c2.27 2.27 5.28 3.51 8.49 3.51s6.22-1.25 8.49-3.51l36.65-36.65c2.27-2.27 3.52-5.28 3.52-8.49s-1.25-6.22-3.51-8.49zm30.99 47.97-36.65 36.65c-.76.76-1.76 1.17-2.83 1.17s-2.07-.42-2.83-1.17l-36.65-36.65c-.76-.76-1.17-1.76-1.17-2.83s.42-2.07 1.17-2.83l36.65-36.65c.76-.76 1.76-1.17 2.83-1.17s2.07.42 2.83 1.17l36.65 36.65c.76.76 1.17 1.76 1.17 2.83s-.42 2.07-1.17 2.83z"/><path d="m112.62 176.45h51.83c6.62 0 12-5.38 12-12v-51.83c0-6.62-5.38-12-12-12h-51.83c-6.62 0-12 5.38-12 12v51.83c0 6.61 5.38 12 12 12zm-4-63.83c0-2.21 1.79-4 4-4h51.83c2.21 0 4 1.79 4 4v51.83c0 2.21-1.79 4-4 4h-51.83c-2.21 0-4-1.79-4-4z"/><path d="m399.38 335.55h-51.83c-6.62 0-12 5.38-12 12v51.83c0 6.62 5.38 12 12 12h51.83c6.62 0 12-5.38 12-12v-51.83c0-6.61-5.38-12-12-12zm4 63.83c0 2.21-1.79 4-4 4h-51.83c-2.21 0-4-1.79-4-4v-51.83c0-2.21 1.79-4 4-4h51.83c2.21 0 4 1.79 4 4z"/><path d="m164.45 335.55h-51.83c-6.62 0-12 5.38-12 12v51.83c0 6.62 5.38 12 12 12h51.83c6.62 0 12-5.38 12-12v-51.83c0-6.61-5.39-12-12-12zm4 63.83c0 2.21-1.79 4-4 4h-51.83c-2.21 0-4-1.79-4-4v-51.83c0-2.21 1.79-4 4-4h51.83c2.21 0 4 1.79 4 4z"/><path d="m430.61 210.87c-2.27-2.27-5.28-3.52-8.49-3.52s-6.22 1.25-8.49 3.51l-36.65 36.65c-2.27 2.27-3.51 5.28-3.51 8.49s1.25 6.22 3.51 8.49l36.65 36.65c2.27 2.27 5.28 3.51 8.49 3.51s6.22-1.25 8.49-3.52l36.65-36.65c2.27-2.27 3.51-5.28 3.51-8.49s-1.25-6.22-3.51-8.49zm30.99 47.96-36.65 36.65c-1.51 1.51-4.15 1.51-5.66 0l-36.65-36.65c-.76-.76-1.17-1.76-1.17-2.83s.42-2.07 1.17-2.83l36.65-36.65c.76-.76 1.76-1.17 2.83-1.17s2.07.42 2.83 1.17l36.65 36.65c.76.76 1.17 1.76 1.17 2.83s-.41 2.07-1.17 2.83z"/><path d="m138.52 256c0-3.21-1.25-6.22-3.51-8.49l-36.65-36.65c-2.27-2.27-5.28-3.51-8.49-3.51s-6.22 1.25-8.49 3.51l-36.65 36.65c-2.27 2.27-3.51 5.28-3.51 8.49s1.25 6.22 3.51 8.49l36.65 36.65c2.27 2.27 5.28 3.52 8.49 3.52s6.22-1.25 8.49-3.51l36.65-36.65c2.26-2.28 3.51-5.29 3.51-8.5zm-9.17 2.83-36.65 36.65c-1.51 1.51-4.15 1.51-5.66 0l-36.64-36.65c-.76-.76-1.17-1.76-1.17-2.83s.42-2.07 1.17-2.83l36.65-36.65c.76-.76 1.76-1.17 2.83-1.17s2.07.42 2.83 1.17l36.65 36.65c.76.76 1.17 1.76 1.17 2.83s-.42 2.07-1.18 2.83z"/><path d="m356.87 297.71c.95-2.3.41-4.9-1.39-6.62l-19.58-18.83c1.09-5.38 1.65-10.84 1.65-16.27 0-5.47-.56-10.99-1.68-16.41l19.51-18.77c1.79-1.72 2.34-4.32 1.38-6.62-.95-2.3-3.2-3.74-5.66-3.7l-27.09.53c-6-9.05-13.9-16.96-22.95-22.98l.52-27.08c.05-2.49-1.4-4.71-3.7-5.66s-4.89-.41-6.62 1.38l-18.75 19.46c-10.84-2.24-21.99-2.26-32.85-.04l-18.74-19.47c-1.72-1.79-4.32-2.33-6.62-1.38s-3.75 3.17-3.7 5.66l.51 27.01c-9.2 6.08-17.21 14.11-23.27 23.31l-27.04-.51c-2.53-.05-4.71 1.41-5.66 3.7s-.41 4.9 1.38 6.62l19.55 18.81c-1.08 5.34-1.62 10.76-1.62 16.14 0 5.43.55 10.89 1.65 16.27l-19.57 18.82c-1.79 1.72-2.34 4.32-1.38 6.62.95 2.3 3.18 3.72 5.66 3.7l27.12-.52c6.02 9.1 13.95 17.04 23.04 23.08l-.54 27.2c-.05 2.49 1.4 4.71 3.7 5.66s4.9.41 6.62-1.38l18.85-19.58c10.81 2.22 21.92 2.22 32.73.01l18.85 19.57c1.16 1.2 2.71 1.84 4.31 1.84.77 0 1.56-.15 2.31-.46 2.3-.95 3.75-3.17 3.7-5.66l-.51-27.16c9.1-6.04 17.04-13.99 23.07-23.09l27.15.51c2.5.03 4.71-1.41 5.66-3.71zm-33.78-4.82c-2.09-.03-4.02.99-5.16 2.76-5.68 8.85-13.36 16.54-22.21 22.23-1.77 1.14-2.8 3.06-2.76 5.15l.44 23.2-16.09-16.71c-1.15-1.19-2.69-1.83-4.3-1.83-.43 0-.87.05-1.3.14-10.4 2.27-21.11 2.27-31.5-.01-2.06-.45-4.15.18-5.6 1.69l-16.09 16.71.46-23.21c.04-2.09-.99-4.02-2.75-5.16-8.84-5.69-16.51-13.38-22.18-22.22-1.14-1.77-3.08-2.83-5.16-2.77l-23.14.45 16.69-16.06c1.51-1.45 2.14-3.54 1.7-5.6-1.12-5.17-1.69-10.44-1.69-15.66 0-5.18.56-10.41 1.67-15.55.44-2.05-.19-4.14-1.7-5.59l-16.67-16.04 23.06.44c2.12.02 4.03-1 5.16-2.77 5.71-8.95 13.46-16.7 22.39-22.43 1.77-1.14 2.81-3.06 2.77-5.16l-.43-23.03 15.98 16.6c1.45 1.51 3.54 2.14 5.6 1.69 10.44-2.28 21.19-2.26 31.61.04 2.06.45 4.16-.18 5.61-1.69l15.98-16.6-.44 23.1c-.04 2.09.99 4.02 2.75 5.15 8.8 5.67 16.44 13.32 22.1 22.13 1.14 1.77 3.06 2.79 5.16 2.76l23.11-.45-16.64 16.01c-1.51 1.45-2.14 3.55-1.69 5.61 1.14 5.21 1.72 10.52 1.72 15.79 0 5.22-.57 10.49-1.69 15.66-.45 2.05.19 4.15 1.7 5.6l16.71 16.06z"/></g></svg>