<svg id="Master_Line" enable-background="new 0 0 512 512" viewBox="0 0 512 512" xmlns="http://www.w3.org/2000/svg"><path d="m468.91 216.25c-7.02-7.02-16.36-10.89-26.29-10.89h-16.62v-19.77l-13.98-13.98 11.75-11.75c7.02-7.02 10.89-16.36 10.89-26.29v-56.23h-56.21c-9.93 0-19.27 3.87-26.29 10.89l-11.76 11.76-13.98-13.98h-19.77v-16.63c0-9.93-3.87-19.27-10.89-26.29l-39.76-39.75-39.75 39.75c-7.02 7.02-10.89 16.36-10.89 26.29v16.62h-19.77l-13.99 13.99-11.75-11.76c-7.02-7.02-16.36-10.89-26.29-10.89h-56.22v56.21c0 9.93 3.87 19.27 10.89 26.29l11.76 11.76-13.98 13.98v19.77h-16.63c-9.93 0-19.27 3.87-26.29 10.89l-39.75 39.76 39.75 39.75c7.02 7.02 16.36 10.89 26.29 10.89h16.62v19.77l13.98 13.98-11.75 11.75c-7.02 7.02-10.89 16.36-10.89 26.29v56.21h56.21c9.93 0 19.27-3.87 26.29-10.89l11.75-11.75 13.98 13.98h19.77v16.62c0 9.93 3.87 19.27 10.89 26.29l39.77 39.77 39.75-39.75c7.02-7.02 10.89-16.36 10.89-26.29v-16.62h19.77l13.98-13.98 11.75 11.75c7.02 7.02 16.36 10.89 26.29 10.89h56.21v-56.21c0-9.93-3.87-19.27-10.89-26.29l-11.75-11.75 13.98-13.98v-19.77h16.62c9.93 0 19.27-3.87 26.29-10.89l39.77-39.77zm-50.92-27.35v16.46h-12.31v-11.36l-8.03-8.03 8.71-8.71zm22.25 44.67c3.54.27 6.87 1.79 9.36 4.29l18.14 18.14-18.14 18.14c-2.49 2.49-5.82 4.02-9.37 4.29-.38.03-.75.06-1.13.06h-17.12-16.31v-44.97h12.31 8 13.12c.39-.01.76.02 1.14.05zm-161.75 192.42v13.12c0 .38-.03.76-.06 1.13-.27 3.54-1.79 6.87-4.29 9.36l-18.14 18.14-18.14-18.14c-2.49-2.49-4.02-5.82-4.29-9.36-.03-.38-.06-.76-.06-1.14v-13.12-8-12.31h44.97v12.31 8.01zm-65.13-20.31h12.15v12.31h-12.15zm-107.09-25.61c0-3.97 1.54-7.69 4.35-10.5l23.64-23.64 31.8 31.8-23.64 23.64c-2.8 2.8-6.53 4.35-10.5 4.35h-25.65zm5.03-39.67 8.71-8.71 8.59 8.59-8.71 8.71-4.3-4.3zm3.02-33.76h19.43l-13.74 13.74-5.69-5.69zm-42.56-73.07c.38-.03.75-.06 1.13-.06h13.12 8 12.31v44.97h-16.31-17.12c-.38 0-.76-.03-1.13-.06-3.54-.27-6.87-1.8-9.36-4.29l-18.14-18.13 18.14-18.14c.62-.62 1.3-1.19 2.02-1.68 2.14-1.49 4.68-2.4 7.34-2.61zm22.25-20.21h12.31v12.15h-12.31zm21.59-46.05 4.3-4.3 8.71 8.71-8.59 8.59-8.71-8.71zm183.04-60.99h-12.15v-12.31h12.15zm99.04 99.04h-19.43l13.74-13.74 5.69 5.69zm-91.04 161.58v-40.76h11.53v35.11l16.45 16.45-8.59 8.59zm-42.48-31.17-8.16 8.16-11.16-11.16c-1.62-1.62-2.51-3.77-2.51-6.06v-12.76-7.3-4.01-2.31l13.67-13.68 13.67 13.67v2.31 4.01 7.3 12.76c0 2.29-.89 4.44-2.51 6.06zm-30.65 41.96 10.66-10.66 11.83-11.83 22.49 22.49v19.95h-44.97v-19.95zm-79.48-51.56h31.8v31.8l-14.11 14.11-31.8-31.8zm-19.76-47.68h-19.96v-44.97h19.96l22.49 22.48zm19.76-92.66-14.11-14.11 31.8-31.8 14.11 14.11v31.8zm39.8 8h11.54 4.25c2.29 0 4.44.89 6.06 2.51l14.19 14.19 3.22 3.21 1.26 1.26v19.33h-19.35l-18.66-18.66c-1.62-1.62-2.51-3.77-2.51-6.06v-4.25zm62.17-25.76 8.16 8.16 3 3c1.62 1.62 2.51 3.77 2.51 6.06v12.76 7.3 4.01 2.31l-13.67 13.68-13.67-13.67v-2.31-4.01-7.3-12.76c0-2.29.89-4.44 2.51-6.06l2.25-2.25zm-22.49-53.75h44.97v19.95l-22.48 22.49-22.49-22.49zm93.2 120.01h-18.39l13-13c2.23-2.23 3.74-4.97 4.43-7.97h33.19l-23.47 23.47c-2.61-1.63-5.62-2.5-8.76-2.5zm-49.04 0v-19.33l2.12-2.12 2.35-2.35 14.19-14.19c1.62-1.62 3.77-2.51 6.06-2.51h4.25 11.53v11.54 4.25c0 2.29-.89 4.44-2.51 6.06l-18.66 18.65zm19.33 43.34 18.66 18.66c1.62 1.62 2.51 3.77 2.51 6.06v4.25 11.54h-11.53-4.25c-2.29 0-4.44-.89-6.06-2.51l-14.19-14.19-2.35-2.35-2.12-2.12v-19.33h19.33zm11.32 0h18.39c3.15 0 6.16-.87 8.76-2.5l23.47 23.47h-33.19c-.69-2.99-2.21-5.74-4.43-7.97zm-23.74 67.21-9.41-9.41c1.63-2.6 2.5-5.62 2.5-8.76v-18.39l13 13c2.23 2.23 4.97 3.74 7.97 4.43v33.19zm-61.58-102.55h11.33v4.69l-3.32 3.32zm19.33-19.33 8.01 8.01-3.32 3.32h-4.69zm32.84-46.47 9.41-9.41 14.06-14.06v33.19c-2.99.69-5.74 2.2-7.97 4.43l-13 13v-18.39c0-3.14-.87-6.16-2.5-8.76zm-5.5 57.8h-4.69l-3.32-3.32 8.01-8.01zm-19.33 8 5.66-5.66 5.66 5.66h8.01v8.01l5.66 5.66-5.66 5.66v8.01h-8.01l-5.66 5.66-5.66-5.66h-8.01v-8.01l-5.66-5.66 5.66-5.66v-8.01zm-19.33 19.33 3.32 3.32v4.69h-11.33zm11.32 16.01h4.69l3.32 3.32-8.01 8.01zm22.65 0h4.69v11.33l-8.01-8.01zm12.69-8v-4.69l3.32-3.32 8.01 8.01zm0-22.65v-4.69h11.33l-8.01 8.01zm89.27-41.66h-40.76v-11.54h35.12l16.45-16.45 8.59 8.59zm-8.97-19.53h-31.8v-31.8l14.11-14.11 31.8 31.8zm-39.8-35.12v35.11h-11.53v-40.76l19.4-19.4 8.59 8.59zm-83.84 34.58v18.39l-13-13c-2.23-2.23-4.97-3.74-7.97-4.43v-33.19l23.47 23.47c-1.63 2.6-2.5 5.62-2.5 8.76zm-43.65 36.04 13 13h-18.38c-3.15 0-6.16.87-8.76 2.5l-23.47-23.47h33.19c.68 2.99 2.2 5.74 4.42 7.97zm-11.45 23.51c1.62-1.62 3.77-2.51 6.06-2.51h26.39l13.67 13.67-13.67 13.67h-26.38c-2.29 0-4.44-.89-6.07-2.52l-.18-.18-10.98-10.97 8.16-8.16zm-2.7 30.33c2.6 1.63 5.62 2.5 8.76 2.5h18.39l-13 13c-2.23 2.23-3.74 4.97-4.43 7.97h-33.19zm17.3 27.22c0-2.29.89-4.44 2.51-6.06l18.66-18.66h19.33v19.33l-1.26 1.26-3.22 3.21-14.19 14.19c-1.62 1.62-3.77 2.51-6.06 2.51h-4.25-11.54v-11.54-4.24zm-1.17 60.07 1.17-1.17v-35.11h11.54v40.76l-19.4 19.4-8.59-8.59zm20.7-36.71c2.99-.69 5.74-2.2 7.97-4.43l13-13v18.39c0 3.15.87 6.16 2.5 8.76l-23.47 23.47zm124.42 43.84-11.61-11.61v-31.8h31.8l14.11 14.11-31.8 31.8zm23.51-51.42h-35.11v-11.54h40.76l19.4 19.4-8.59 8.59zm-28.53-51.01c-1.62 1.62-3.77 2.51-6.06 2.51h-26.39l-13.66-13.67 13.67-13.67h26.39c2.28 0 4.43.89 6.04 2.49l11.18 11.18zm44.97 11.33-22.49-22.49 22.49-22.49h19.96v44.97h-19.96zm-3.32-52.98-24.83 24.83-8.16-8.16 28.83-28.82h27.43v12.15zm26.29-53.91-8.7 8.7-8.59-8.59 8.71-8.71 4.3 4.3zm5.03-39.67c0 3.53-1.27 6.95-3.59 9.65-.25.29-.49.58-.76.85l-14.93 14.93-8.71 8.71-31.8-31.8 14.36-14.36 9.27-9.27c2.8-2.8 6.53-4.35 10.5-4.35h25.65v25.64zm-56.74-12.03-8.71 8.71-8.59-8.59 8.71-8.71 4.3 4.3zm-42.35 13.85v-19.43h8.05l5.69 5.69zm-8 8-28.83 28.82-8.16-8.16 24.83-24.83v-23.27h12.15v27.44zm-20.16-68.96c0 .07 0 .13.01.2v13.02 8 12.31h-44.97v-12.31-8-13.02l.01-.21c.01-.34.03-.69.05-1.03.27-3.54 1.8-6.87 4.29-9.36l18.13-18.13 18.14 18.14c2.49 2.49 4.02 5.82 4.29 9.36.02.34.04.69.05 1.03zm-52.97 33.53h-12.15v-12.31h12.15zm0 8v23.27l24.83 24.83-8.16 8.16-28.82-28.82v-27.43h12.15zm-20.15 19.43-13.74-13.74 5.69-5.69h8.05zm0 11.31v40.76h-11.54v-35.11l-16.45-16.45 8.59-8.59zm-33.64-16.46-8.71-8.71 8.59-8.59 8.71 8.71zm-29.3-17.98 23.64 23.64-31.8 31.8-11.53-11.53-12.1-12.1c-.27-.27-.52-.56-.76-.84-2.31-2.7-3.59-6.13-3.59-9.65v-25.65h25.65c.5 0 .99.02 1.47.07 3.41.32 6.57 1.81 9.02 4.26zm-8.16 66.75 15.28 15.28 1.17 1.17h35.11v11.54h-40.76l-19.4-19.4zm-.51 27.99h-19.43v-8.05l5.69-5.69zm8 8 28.82 28.82-8.16 8.16-24.83-24.83h-23.27v-12.15zm-47.74 73.13h12.31v12.15h-12.31zm20.31 0h23.27l24.83-24.83 8.16 8.16-28.82 28.82h-27.43v-12.15zm30.74 20.15h40.76v11.54h-35.11l-16.45 16.45-8.59-8.59zm17.95 85.46 8.71-8.71 8.59 8.59-8.71 8.71-4.3-4.3zm42.35-13.85v19.43h-8.05l-5.69-5.69zm8-8 28.82-28.82 8.16 8.16-23.66 23.66-1.17 1.17v23.27h-12.15zm73.13 35.43h12.15v12.31h-12.15zm0-8v-23.27l-24.83-24.83 8.16-8.16 28.83 28.82v27.43h-12.16zm20.15-19.43 4.06 4.06 9.68 9.68-5.69 5.69h-8.05zm33.76 22.45-8.71-8.71 8.59-8.59 8.71 8.71-4.3 4.3zm19.9-8.6-14.36-14.36 31.8-31.8 23.64 23.64c2.8 2.8 4.35 6.53 4.35 10.5v25.65h-25.65c-3.97 0-7.69-1.54-10.5-4.35zm31.8-43.11-8.71-8.71 8.59-8.59 8.7 8.7-4.3 4.3zm-13.85-42.35h19.43v8.05l-5.69 5.69zm-8-8-28.83-28.82 8.16-8.16 11 11 13.83 13.83h23.27v12.15zm35.43-12.15h12.31v12.15h-12.31zm12.31-60.98h-12.31v-12.15h12.31zm-60.18-131.62c5.51-5.51 12.84-8.55 20.64-8.55h48.21v48.21c0 7.8-3.04 15.12-8.55 20.64l-11.75 11.75-4.3-4.3-4.3-4.3 9.27-9.27c.43-.43.8-.86 1.18-1.29 3.56-4.15 5.51-9.43 5.51-14.86v-33.65h-33.65c-6.1 0-11.84 2.38-16.15 6.69l-9.27 9.27-4.3-4.3-4.3-4.3zm-34.71.12 11.64 11.64-8.7 8.71-8.03-8.03h-11.36v-12.32zm-109.74-24.63c0-7.8 3.04-15.12 8.55-20.64l34.09-34.08 34.09 34.09c5.51 5.51 8.55 12.84 8.55 20.64v16.62h-12.15v-13.12c0-.1 0-.19-.01-.29-.01-.49-.04-.97-.07-1.46-.42-5.45-2.76-10.56-6.61-14.41l-23.8-23.79-23.79 23.79c-3.84 3.84-6.19 8.96-6.61 14.41-.04.49-.07.98-.07 1.45v.05l-.01.25h.01l-.01 13.12h-12.15v-16.63zm-24.46 24.63h16.46v12.31h-11.36l-8.03 8.03-8.71-8.71zm-103.56 39.55v-48.22h48.21c7.8 0 15.12 3.04 20.64 8.55l11.75 11.75-8.59 8.59-9.27-9.27c-4.31-4.32-10.05-6.69-16.16-6.69h-33.65v33.65c0 5.44 1.96 10.71 5.52 14.86.37.43.74.86 1.18 1.29l9.27 9.27-4.3 4.3-4.3 4.3-11.76-11.76c-5.5-5.5-8.54-12.83-8.54-20.62zm8.67 55.34 11.64-11.64 8.71 8.71-8.03 8.03v11.36h-12.32zm-24.63 109.74c-7.8 0-15.12-3.04-20.64-8.55l-34.08-34.09 34.09-34.09c5.51-5.51 12.84-8.55 20.64-8.55h16.62v12.15h-13.12c-.62 0-1.21.04-1.75.08-5.45.42-10.56 2.77-14.4 6.61l-23.8 23.8 23.79 23.8c3.84 3.84 8.96 6.19 14.4 6.61h.01.01c.15.01.31.02.46.03.13.01.25.02.38.03.29.02.58.03.89.03h13.12v12.15h-16.62zm24.63 8h12.31v11.36l8.03 8.03-8.71 8.71-11.63-11.64zm60.18 111.47c-5.51 5.51-12.84 8.55-20.64 8.55h-48.21v-48.21c0-7.8 3.04-15.13 8.55-20.64l11.75-11.76 4.3 4.3 4.3 4.3-9.27 9.27c-4.31 4.32-6.69 10.05-6.69 16.16v33.65h33.65c2.29 0 4.53-.33 6.66-.98 3.55-1.08 6.8-3.02 9.5-5.71l9.27-9.27 4.3 4.3 4.3 4.3zm34.71-.12-11.64-11.64 8.71-8.71 8.03 8.03h11.36v12.31h-16.46zm109.74 24.63c0 7.8-3.04 15.12-8.55 20.64l-34.09 34.08-34.09-34.09c-5.51-5.51-8.55-12.84-8.55-20.64v-16.62h12.15v13.12c0 .61.04 1.18.08 1.75.42 5.45 2.77 10.56 6.61 14.41l23.8 23.79 23.79-23.79c3.84-3.84 6.19-8.96 6.61-14.4.04-.54.08-1.13.08-1.75v-13.12h12.15v16.62zm24.46-24.63h-16.46v-12.31h11.36l8.03-8.03 8.71 8.71zm95.01-60.18c5.51 5.51 8.55 12.84 8.55 20.64v48.21h-48.21c-7.8 0-15.12-3.04-20.64-8.55l-11.75-11.75 4.3-4.3 4.3-4.3 9.27 9.27c4.32 4.32 10.05 6.69 16.16 6.69h33.65v-33.65c0-6.1-2.38-11.84-6.69-16.16l-9.27-9.27 4.3-4.3 4.3-4.3zm-.12-34.71-11.64 11.64-8.71-8.71 8.03-8.03v-11.36h12.31v16.46zm45.26-33.01c-5.51 5.51-12.84 8.55-20.64 8.55h-16.62v-12.15h13.12c.31 0 .6-.01.89-.03.06 0 .12-.01.17-.01.22-.01.44-.03.67-.04h.01.01c5.45-.42 10.56-2.77 14.41-6.61l23.8-23.8-23.8-23.8c-3.84-3.84-8.96-6.19-14.4-6.61-.54-.04-1.13-.08-1.75-.08h-13.12v-12.15h16.62c7.8 0 15.12 3.04 20.64 8.55l34.08 34.09z"/></svg>