<svg id="ISLAMIC_PATTERN" enable-background="new 0 0 64 64" height="512" viewBox="0 0 64 64" width="512" xmlns="http://www.w3.org/2000/svg"><path d="m60.5302734 31.4697266-7-7c-.140625-.140625-.3310546-.2197266-.5302734-.2197266h-2.2894897l1.6195679-1.6196289c.140625-.140625.2197266-.331543.2197266-.5302734v-9.8999023c0-.4140625-.3359375-.75-.75-.75h-9.8994141c-.1992188 0-.3896484.0791016-.5302734.2197266l-1.6201173 1.620056v-2.289978c0-.1987305-.0791016-.3896484-.2197266-.5302734l-7-7c-.2929688-.2929688-.7675781-.2929688-1.0605469 0l-7 7c-.1406249.140625-.2197265.3315429-.2197265.5302734v2.289978l-1.6201172-1.6200562c-.140625-.140625-.3310547-.2197266-.5302734-.2197266h-9.8994141c-.4140625 0-.75.3359375-.75.75v3.449707c0 .4140625.3359375.75.75.75s.75-.3359375.75-.75v-2.699707h8.8388672l2.4609375 2.4608155v8.8389893h-8.8394775l-2.4603271-2.4604492v-3.1396484c0-.4140625-.3359375-.75-.75-.75s-.75.3359375-.75.75v3.4501953c0 .1987305.0791016.3896484.2197266.5302734l1.6195677 1.6196289h-2.2894897c-.1992188 0-.3896484.0791016-.5302734.2197266l-7 7c-.2929688.2929688-.2929688.7675781 0 1.0605469l7 7c.140625.1406249.3310547.2197265.5302734.2197265h2.2894897l-1.6195679 1.6196289c-.140625.140625-.2197266.331543-.2197266.5302734v9.8999023c0 .4140625.3359375.75.75.75h9.8994141c.1992188 0 .3896484-.0791016.5302734-.2197266l1.6201173-1.620056v2.289978c0 .1987305.0791016.3896484.2197266.5302734l7 7c.1464843.1464844.3378906.2197266.5302734.2197266s.3837891-.0732422.5302734-.2197266l7-7c.140625-.140625.2197266-.3315429.2197266-.5302734v-2.289978l1.6201172 1.6200562c.140625.140625.3310547.2197266.5302734.2197266h9.8994141c.4140625 0 .75-.3359375.75-.75v-3.2998048c0-.4140625-.3359375-.75-.75-.75s-.75.3359375-.75.75v2.5498047h-8.8388672l-2.4609375-2.4608154v-8.8389893h8.8394775l2.4603271 2.4604492v3.2895508c0 .4140625.3359375.75.75.75s.75-.3359375.75-.75v-3.6000977c0-.1987305-.0791016-.3896484-.2197266-.5302734l-1.6195677-1.6196289h2.2894897c.1992188 0 .3896484-.0791016.5302734-.2197266l7-7c.2929688-.2929687.2929688-.7675781 0-1.0605468zm-20.7802734-16.0587159 2.4609375-2.4608154h8.8388672v8.8393555l-2.4603272 2.4604492h-8.8394775zm0 10.3389893h7.3395386l-5.189209 5.1895142-2.1503296-2.1499634zm-14-14.4394531 6.25-6.25 6.25 6.25v3.4793091l-6.25 6.2496948-6.25-6.2496948zm12.5 5.6004028v7.3390503h-3.0390625l-2.1503296-2.1499634zm-12.5 0 5.1893921 5.1890869-2.1503296 2.1499634h-3.0390625zm-1.5 8.8390503v3.0395508l-2.1503296 2.1499634-5.189209-5.1895142zm-12.9394531 12.5-6.25-6.25 6.25-6.25h3.4788208l6.2496948 6.25-6.2496948 6.25zm12.9394531 10.3389893-2.4609375 2.4608154h-8.8388672v-8.8393555l2.4603272-2.4604492h8.8394775zm0-10.3389893h-7.3395386l5.189209-5.1895142 2.1503296 2.1499634zm14 14.4394531-6.25 6.25-6.25-6.25v-3.4793091l6.25-6.2496948 6.25 6.2496948zm-12.5-5.6004028v-7.3390503h3.0390625l2.1503296 2.1499634zm12.5 0-5.1893921-5.1890869 2.1503296-2.1499634h3.0390625zm.2197266-12.7194214c-.140625.140625-.2197266.331543-.2197266.5302734v3.3500977h-3.3496094c-.1992188 0-.3896484.0791016-.5302734.2197266l-2.3701172 2.3696289-2.3701172-2.3696289c-.140625-.140625-.3310547-.2197266-.5302734-.2197266h-3.3496094v-3.3500977c0-.1987305-.0791016-.3896484-.2197266-.5302734l-2.3701171-2.3696289 2.3701172-2.3696289c.1406249-.140625.2197265-.331543.2197265-.5302734v-3.3500977h3.3496094c.1992188 0 .3896484-.0791016.5302734-.2197266l2.3701172-2.3696289 2.3701172 2.3696289c.140625.140625.3310547.2197266.5302734.2197266h3.3496094v3.3500977c0 .1987305.0791016.3896484.2197266.5302734l2.3701172 2.3696289zm1.2802734 3.8803711v-3.0395508l2.1503296-2.1499634 5.189209 5.1895142zm12.9394531 0h-3.4788208l-6.2496948-6.25 6.2496948-6.25h3.4788208l6.25 6.25z"/></svg>