<svg id="Layer_1" height="512" viewBox="0 0 512 512" width="512" xmlns="http://www.w3.org/2000/svg"><path d="m256 488.5c-1.989 0-3.897-.79-5.303-2.197l-63.704-63.704h-90.092c-4.142 0-7.5-3.358-7.5-7.5v-90.092l-63.704-63.704c-2.929-2.929-2.929-7.678 0-10.606l63.704-63.704v-90.092c0-4.142 3.358-7.5 7.5-7.5h90.092l63.704-63.704c2.929-2.928 7.677-2.929 10.607 0l63.704 63.704h90.091c4.143 0 7.5 3.358 7.5 7.5v90.092l63.705 63.704c1.406 1.406 2.196 3.314 2.196 5.303s-.79 3.897-2.196 5.303l-63.705 63.704v90.092c0 4.142-3.357 7.5-7.5 7.5h-90.092l-63.703 63.704c-1.407 1.407-3.315 2.197-5.304 2.197zm-151.599-80.901h85.698c1.989 0 3.897.79 5.303 2.197l60.598 60.597 60.597-60.598c1.407-1.407 3.314-2.197 5.304-2.197h85.698v-85.698c0-1.989.79-3.897 2.196-5.303l60.599-60.597-60.599-60.598c-1.406-1.406-2.196-3.314-2.196-5.303v-85.698h-85.697c-1.989 0-3.896-.79-5.304-2.197l-60.598-60.598-60.598 60.598c-1.406 1.407-3.314 2.197-5.303 2.197h-85.698v85.698c0 1.989-.79 3.897-2.197 5.303l-60.597 60.598 60.598 60.598c1.407 1.406 2.197 3.314 2.197 5.303v85.698zm151.599 24.332c-1.919 0-3.839-.732-5.303-2.197l-47.136-47.135h-66.66c-4.142 0-7.5-3.358-7.5-7.5v-66.66l-47.136-47.136c-2.929-2.929-2.929-7.678 0-10.606l47.136-47.136v-66.66c0-4.142 3.358-7.5 7.5-7.5h66.66l47.136-47.136c2.929-2.929 7.678-2.928 10.607 0l47.136 47.136h66.659c4.143 0 7.5 3.358 7.5 7.5v66.66l47.137 47.136c1.406 1.406 2.196 3.314 2.196 5.303s-.79 3.897-2.196 5.303l-47.137 47.136v66.66c0 4.142-3.357 7.5-7.5 7.5h-66.66l-47.135 47.135c-1.465 1.464-3.385 2.197-5.304 2.197zm-111.599-64.332h62.267c1.989 0 3.897.79 5.303 2.197l44.029 44.028 44.028-44.029c1.407-1.407 3.314-2.197 5.304-2.197h62.267v-62.267c0-1.989.79-3.897 2.196-5.303l44.03-44.03-44.03-44.029c-1.406-1.406-2.196-3.314-2.196-5.303v-62.266h-62.266c-1.989 0-3.896-.79-5.304-2.197l-44.029-44.029-44.029 44.029c-1.406 1.407-3.314 2.197-5.303 2.197h-62.267v62.266c0 1.989-.79 3.897-2.197 5.303l-44.029 44.029 44.029 44.03c1.407 1.406 2.197 3.314 2.197 5.303zm111.599-50.617c-33.625 0-60.982-27.356-60.982-60.982s27.356-60.982 60.982-60.982c33.625 0 60.981 27.356 60.981 60.982s-27.356 60.982-60.981 60.982zm0-106.964c-25.354 0-45.982 20.627-45.982 45.982s20.627 45.982 45.982 45.982 45.981-20.627 45.981-45.982-20.626-45.982-45.981-45.982z"/></svg>