<svg enable-background="new 0 0 512 512" viewBox="0 0 512 512" xmlns="http://www.w3.org/2000/svg"><g id="_x31_9_Islamic_geometric_patterns"><g><path d="m345.061 299.181c-1.345.124-2.338 1.312-2.214 2.653l3.068 33.587c.115 1.269 1.183 2.223 2.428 2.223.076 0 .153-.005.224-.01 1.345-.124 2.338-1.312 2.214-2.653l-3.068-33.586c-.118-1.345-1.411-2.28-2.652-2.214z"/><path d="m335.982 315.979c-1.35 0-2.443 1.093-2.443 2.443v6.107c0 1.35 1.092 2.443 2.443 2.443 1.35 0 2.443-1.092 2.443-2.443v-6.107c0-1.35-1.092-2.443-2.443-2.443z"/><path d="m474.04 253.949-46.554 40.471c-1.016.883-1.126 2.428-.239 3.445.482.553 1.159.84 1.842.84.568 0 1.14-.196 1.603-.601l46.554-40.471c1.016-.883 1.126-2.428.239-3.445-.883-1.012-2.429-1.131-3.445-.239z"/><path d="m440.559 275.065c.544 0 1.093-.181 1.546-.553l8.397-6.87c1.045-.854 1.197-2.39.343-3.435-.849-1.05-2.39-1.202-3.435-.344l-8.397 6.87c-1.045.854-1.197 2.39-.344 3.435.482.592 1.184.897 1.89.897z"/><g><path d="m493.82 234.289c-18.609-17.791-37.576-35.742-56.42-53.748 3.063-26.488 3.645-52.923 1.727-78.604-.663-9.503-2.49-19.985-11.011-25.662-5.854-3.86-12.752-3.965-19.226-3.745-12.938.32-25.853.62-38.758.916-13.072.301-26.139.601-39.202.926-16.574-20.815-34.851-39.894-54.335-56.725-6.755-5.925-15.83-12.428-26.044-10.415-7.237 1.503-12.423 6.932-16.216 10.906-5.711 6.006-53.298 55.944-53.829 56.501-25.82-3.077-52.212-3.688-78.57-1.813-6.278.515-19.355 1.584-25.7 11.106-3.96 6.002-3.845 13.005-3.75 19.231.696 27.688 1.242 53.727 1.842 77.95-20.734 16.517-39.812 34.76-56.773 54.301-6.55 7.714-12.342 16.202-10.362 25.968 1.469 7.233 6.751 12.275 10.997 16.321 18.477 17.665 39.108 37.206 56.42 53.748-3.068 26.511-3.65 52.951-1.727 78.604.668 9.57 2.505 20.109 11.006 25.662 6.154 4.055 13.749 3.936 19.327 3.841 24.172-.6 53.081-1.225 77.941-1.842 16.068 20.357 34.321 39.407 54.258 56.63 5.887 5.167 13.53 10.796 22.175 10.796 1.269 0 2.557-.119 3.869-.382 7.237-1.503 12.423-6.932 16.216-10.906 17.604-18.516 35.218-36.94 52.904-55.442l1.011-1.059c25.834 3.072 52.202 3.697 78.427 1.813 8.964-.625 19.99-2.452 25.734-11.064 3.993-5.935 3.874-13 3.769-19.269-.598-23.969-1.25-54.265-1.842-77.95 20.5-16.24 39.579-34.488 56.739-54.268.005 0 .005-.005.01-.01 6.259-7.247 12.39-16.001 10.391-25.996-1.404-6.912-6.222-11.874-10.998-16.32zm-6.779 35.924c-17.294 19.928-36.578 38.267-57.316 54.502-1.217.949-1.913 2.424-1.875 3.965.666 26.782 1.194 51.764 1.899 80.355.086 5.028.172 10.224-2.118 13.63-3.397 5.09-11.564 6.283-18.306 6.76-26.416 1.88-52.989 1.193-78.966-2.066-1.527-.181-3.072.353-4.136 1.469l-2.705 2.829c-17.695 18.516-35.309 36.94-52.918 55.456-3.755 3.936-7.19 7.261-11.092 8.072-5.94 1.197-12.271-3.468-17.681-8.211-20.114-17.375-38.443-36.621-54.483-57.202-.93-1.193-2.352-1.884-3.855-1.884-.038 0-.081 0-.124 0-26.752.671-53.581 1.232-80.35 1.899-5.706.105-10.372-.005-13.764-2.237-4.938-3.225-6.121-11.001-6.627-18.201-1.932-25.829-1.269-52.46 1.975-79.157.181-1.527-.363-3.053-1.474-4.117-19.209-18.359-40.88-38.888-58.19-55.437-3.425-3.268-7.309-6.975-8.168-11.197-1.15-5.677 3.278-11.86 8.201-17.662 17.046-19.637 36.33-37.976 57.326-54.511 1.207-.949 1.899-2.419 1.861-3.955-.696-28.209-1.217-52.923-1.899-80.35-.086-5.229-.162-10.167 2.123-13.63 3.263-4.895 10.749-6.145 18.306-6.765 26.478-1.88 53.085-1.193 79.057 2.066 1.531.181 3.072-.358 4.146-1.479.466-.489 50.518-53.014 55.523-58.275 3.755-3.936 7.19-7.261 11.092-8.072 5.94-1.202 12.271 3.468 17.681 8.211 19.637 16.96 38.004 36.249 54.592 57.317.954 1.207 2.352 1.865 3.965 1.865 13.869-.348 27.737-.668 41.621-.988 12.905-.296 25.824-.592 38.815-.916 5.181-.162 10.105-.143 13.54 2.123 4.981 3.32 6.169 11.064 6.67 18.224 1.927 25.853 1.264 52.484-1.975 79.157-.181 1.527.363 3.053 1.474 4.117 18.487 17.67 38.88 36.989 58.233 55.475 3.807 3.554 7.295 7.08 8.125 11.149 1.162 5.83-3.256 11.936-8.203 17.671z"/><path d="m411.495 240.672c-13.136-12.548-23.95-22.782-35.996-34.283 1.918-17.013 2.266-33.982 1.035-50.466-.458-6.579-1.751-13.854-7.91-17.967-4.575-3.015-10.19-2.82-13.468-2.715l-49.726 1.174c-10.677-13.325-22.432-25.557-34.937-36.358-4.671-4.103-10.954-8.621-18.377-7.147-5.224 1.083-8.945 4.99-11.412 7.576l-34.336 36.039c-16.593-1.918-33.539-2.285-50.466-1.083-4.341.353-13.382 1.088-17.962 7.967-2.877 4.351-2.791 9.384-2.724 13.468.167 6.689 1.167 49.223 1.178 49.726-13.272 10.634-25.5 22.361-36.411 34.927-2.829 3.34-8.726 10.286-7.099 18.296 1.059 5.229 4.861 8.855 7.633 11.493 12.918 12.347 23.799 22.635 35.991 34.288-1.918 17.008-2.266 33.978-1.035 50.461.281 4.012.93 13.406 7.915 17.962 4.442 2.934 9.699 2.853 13.525 2.781l49.712-1.174c10.362 13.039 22.094 25.247 34.889 36.296 4.055 3.559 9.341 7.433 15.496 7.433.94 0 1.899-.091 2.882-.286 5.214-1.083 8.94-4.986 11.417-7.576 11.445-12.032 22.89-24.007 34.388-36.034 16.598 1.923 33.534 2.285 50.351 1.083 6.207-.434 13.864-1.727 18-7.934 2.896-4.294 2.81-9.379 2.743-13.506-.219-8.774-.425-17.547-.625-26.325l-.553-23.387c13.115-10.462 25.343-22.194 36.377-34.903.005 0 .01-.005.01-.01 2.843-3.297 8.759-10.152 7.123-18.329-1.011-4.984-4.346-8.429-7.628-11.487zm-6.88 23.425c-11.168 12.857-23.601 24.679-36.955 35.137-1.217.949-1.913 2.424-1.875 3.969l.611 25.81c.205 8.788.406 17.566.625 26.306.052 2.996.105 6.097-1.088 7.862-1.789 2.686-6.584 3.349-10.572 3.626-17.017 1.212-34.145.768-50.9-1.326-1.531-.191-3.072.353-4.136 1.469-12.075 12.628-24.083 25.195-36.091 37.813-2.238 2.342-4.26 4.322-6.293 4.742-3.115.611-6.989-2.295-10.014-4.943-12.967-11.202-24.784-23.606-35.118-36.869-.93-1.193-2.352-1.884-3.855-1.884-.038 0-.081 0-.119 0l-52.121 1.231c-3.459.057-6.169.01-7.962-1.178-2.6-1.694-3.254-6.488-3.53-10.496-1.245-16.664-.816-33.83 1.274-51.024.181-1.527-.363-3.053-1.474-4.117-12.721-12.163-25.388-24.151-37.756-35.972-2.042-1.946-4.351-4.146-4.799-6.369-.606-2.967 2.175-6.736 4.933-9.99 10.997-12.667 23.429-24.489 36.959-35.137 1.212-.954 1.904-2.424 1.865-3.965-.012-.492-1.123-47.621-1.236-52.121-.052-3.115-.1-6.054 1.093-7.862 1.717-2.576 6.331-3.282 10.567-3.626 17.07-1.212 34.221-.768 50.957 1.331 1.574.177 3.087-.358 4.151-1.479l36.024-37.809c2.233-2.347 4.251-4.318 6.288-4.742 3.125-.592 6.989 2.29 10.014 4.943 12.657 10.935 24.503 23.367 35.194 36.95.954 1.207 2.395 1.846 3.96 1.865l52.207-1.236c3.053-.1 5.973-.095 7.781 1.093 2.619 1.746 3.268 6.288 3.564 10.524 1.245 16.664.816 33.83-1.274 51.029-.181 1.527.363 3.053 1.474 4.117 12.153 11.609 27.806 26.449 37.799 36.005 2.261 2.104 4.327 4.174 4.761 6.312.611 3.069-2.151 6.781-4.933 10.011z"/><path d="m321.66 247.638-13.711-13.062c.673-6.679.763-13.315.281-19.756-.143-2.051-.482-6.86-4.527-9.561-2.633-1.732-5.61-1.646-7.171-1.589l-18.945.448c-4.236-5.162-8.859-9.914-13.74-14.131-1.417-1.24-5.195-4.551-10.009-3.588-3.034.62-5.009 2.696-6.188 3.936l-13.072 13.721c-6.517-.668-13.139-.773-19.789-.296-2.056.167-6.875.563-9.537 4.551-1.67 2.538-1.617 5.31-1.584 7.171l.444 18.945c-5.124 4.208-9.88 8.821-14.188 13.783-1.341 1.579-4.475 5.277-3.53 9.942.615 3.01 2.629 4.933 3.955 6.202l13.711 13.063c-.668 6.655-.763 13.296-.281 19.746.129 1.894.472 6.922 4.527 9.565 2.571 1.703 5.463 1.651 7.199 1.617l18.931-.444c4.136 5.062 8.754 9.809 13.73 14.107 1.245 1.088 4.284 3.759 8.263 3.755.563 0 1.15-.052 1.746-.172 3.015-.62 4.995-2.691 6.188-3.941 4.356-4.58 8.716-9.141 13.091-13.716 6.512.668 13.134.773 19.718.296 1.88-.129 6.87-.482 9.561-4.518 1.684-2.509 1.641-5.31 1.613-7.204l-.448-18.935c5.09-4.165 9.842-8.783 14.15-13.749.005-.005.01-.005.01-.01 1.35-1.565 4.508-5.229 3.564-9.961-.632-3.114-2.831-5.161-3.962-6.215zm-6.998 9.794c-4.442 5.114-9.394 9.823-14.718 13.998-1.217.949-1.913 2.424-1.875 3.965l.506 21.311c.01.448.019 1.064-.014 1.465-.305.1-.911.234-2.08.32-6.798.482-13.616.305-20.271-.53-1.574-.186-3.077.353-4.141 1.469-4.947 5.172-9.871 10.319-14.775 15.481-.205.219-.677.711-1.016.992-.281-.148-.806-.487-1.694-1.264-5.157-4.451-9.861-9.394-13.993-14.685-.926-1.188-2.347-1.88-3.85-1.88-.038 0-.081 0-.119 0l-21.326.501c-.334.014-1.03.019-1.469-.024-.095-.305-.219-.916-.3-2.085-.496-6.641-.324-13.482.506-20.324.191-1.531-.358-3.058-1.469-4.122l-15.457-14.728c-.281-.267-.739-.706-1.007-1.026.153-.296.496-.816 1.24-1.694 4.399-5.067 9.356-9.78 14.737-14.012 1.212-.954 1.904-2.424 1.865-3.96l-.501-21.33c-.01-.415-.019-1.04.014-1.446.31-.1.921-.229 2.08-.324 6.798-.482 13.63-.31 20.3.53 1.522.177 3.077-.358 4.146-1.479l14.751-15.481c.2-.215.668-.701 1.002-.983.281.148.806.487 1.694 1.264 5.048 4.356 9.766 9.313 14.026 14.727.954 1.207 2.443 1.837 3.96 1.865l21.397-.51c.258-.01.94-.029 1.374.014.095.301.224.906.305 2.075.496 6.617.324 13.458-.51 20.328-.181 1.527.363 3.053 1.474 4.117l15.5 14.77c.191.181.697.649.973.983-.149.29-.488.81-1.265 1.712z"/><path d="m219.355 167.574c.677 0 1.355-.281 1.837-.83l25.333-28.878c.887-1.016.787-2.557-.224-3.449-1.011-.883-2.557-.787-3.449.224l-25.333 28.878c-.887 1.016-.787 2.557.224 3.449.467.405 1.04.606 1.612.606z"/><path d="m207.743 181.939c.625 0 1.25-.239 1.727-.716l2.29-2.29c.954-.954.954-2.5 0-3.454s-2.5-.954-3.454 0l-2.29 2.29c-.954.954-.954 2.5 0 3.454.477.477 1.102.716 1.727.716z"/><path d="m282.721 264.168-16.049 13.711c-1.031.873-1.15 2.414-.272 3.44.482.568 1.169.859 1.856.859.563 0 1.126-.191 1.584-.587l16.059-13.711c1.026-.873 1.145-2.419.267-3.445-.873-1.02-2.414-1.144-3.445-.267z"/><path d="m270.799 262.809c-.787-1.102-2.314-1.345-3.406-.572l-5.348 3.821c-1.097.782-1.35 2.309-.563 3.406.477.668 1.226 1.021 1.985 1.021.496 0 .992-.148 1.422-.458l5.339-3.812c1.096-.782 1.353-2.309.571-3.406z"/><path d="m300.64 426.271c-1.112-.739-2.638-.448-3.383.682-10.815 16.259-24.207 30.466-39.803 42.231-1.078.811-1.293 2.347-.482 3.421.482.639 1.212.973 1.951.973.515 0 1.03-.162 1.469-.491 16.039-12.099 29.813-26.712 40.929-43.433.751-1.122.445-2.639-.681-3.383z"/><path d="m270.994 450.173 5.339-3.812c1.097-.782 1.355-2.309.572-3.406-.787-1.102-2.319-1.345-3.406-.573l-5.348 3.821c-1.097.782-1.35 2.309-.563 3.406.477.668 1.226 1.021 1.985 1.021.496.001.992-.147 1.421-.457z"/><path d="m293.67 82.725c.482.525 1.145.792 1.803.792.592 0 1.183-.21 1.651-.639.992-.916 1.064-2.457.153-3.454l-35.047-38.234c-.916-.992-2.457-1.064-3.449-.148-.992.911-1.064 2.452-.148 3.449z"/><path d="m262.035 64.62c-.802 1.083-.573 2.61.515 3.416l6.984 5.172c.439.324.949.482 1.455.482.744 0 1.484-.343 1.961-.988.806-1.083.577-2.614-.506-3.416l-6.994-5.181c-1.068-.788-2.604-.573-3.415.515z"/><path d="m95.243 200.96c-.906-1.007-2.457-1.088-3.449-.186l-51.844 46.635c-1.007.902-1.088 2.447-.186 3.449.482.539 1.15.811 1.818.811.582 0 1.169-.205 1.632-.625l51.844-46.635c1.005-.901 1.086-2.447.185-3.449z"/><path d="m77.91 232.447-7.662 6.064c-1.054.84-1.236 2.376-.401 3.435.487.606 1.197.926 1.918.926.534 0 1.069-.172 1.517-.525l7.662-6.073c1.059-.835 1.236-2.371.396-3.43-.839-1.065-2.375-1.236-3.43-.397z"/></g></g></g><g id="Layer_1"/></svg>