<svg id="Layer_1" height="512" viewBox="0 0 512 512" width="512" xmlns="http://www.w3.org/2000/svg"><path d="m486.304 250.696-63.705-63.705v-90.09c0-4.143-3.357-7.5-7.5-7.5h-90.09l-63.705-63.705c-2.93-2.928-7.678-2.928-10.607 0l-63.705 63.705h-90.09c-4.143 0-7.5 3.357-7.5 7.5v90.09l-63.705 63.705c-2.929 2.93-2.929 7.678 0 10.607l63.705 63.705v90.09c0 4.143 3.357 7.5 7.5 7.5h90.09l63.705 63.705c1.465 1.464 3.385 2.196 5.304 2.196s3.839-.732 5.304-2.196l63.705-63.705h90.09c4.143 0 7.5-3.357 7.5-7.5v-90.09l63.705-63.705c2.927-2.929 2.927-7.677-.001-10.607zm-78.705-146.295v67.59l-67.59-67.59zm0 88.804v125.59l-88.804 88.804h-125.59l-88.804-88.804v-125.59l88.804-88.804h125.59zm-151.599-151.599 47.795 47.795h-95.59zm-151.599 62.795h67.59l-67.59 67.59zm-62.795 151.599 47.795-47.795v95.59zm62.795 151.598v-67.59l67.59 67.59zm151.599 62.795-47.795-47.795h95.59zm151.599-62.795h-67.59l67.59-67.59zm15-103.803v-95.59l47.795 47.795z"/></svg>