<?xml version="1.0"?>
<svg xmlns="http://www.w3.org/2000/svg" width="128" height="128" viewBox="0 0 128 128"><g><path d="M105.432,46.838V23.068a.5.5,0,0,0-.5-.5H81.162L64.354,5.76a.5.5,0,0,0-.708,0L46.838,22.568H23.068a.5.5,0,0,0-.5.5v23.77L5.76,63.646a.5.5,0,0,0,0,.707L22.568,81.162v23.77a.5.5,0,0,0,.5.5h23.77L63.646,122.24a.5.5,0,0,0,.708,0l16.808-16.808h23.77a.5.5,0,0,0,.5-.5V81.162L122.24,64.353a.5.5,0,0,0,0-.707ZM104.578,80.6a.5.5,0,0,0-.146.353v23.478H80.955a.5.5,0,0,0-.354.146L64,121.179l-16.6-16.6a.5.5,0,0,0-.354-.146H23.568V80.954a.5.5,0,0,0-.146-.353L6.821,64l16.6-16.6a.5.5,0,0,0,.146-.354V23.568H47.045a.5.5,0,0,0,.354-.146L64,6.821l16.6,16.6a.5.5,0,0,0,.354.146h23.477V47.045a.5.5,0,0,0,.146.354l16.6,16.6Z" fill="#020202"/><path d="M99.337,29.162a.5.5,0,0,0-.5-.5h-20.2L64.354,14.379a.5.5,0,0,0-.708,0L49.363,28.662h-20.2a.5.5,0,0,0-.5.5v20.2L14.379,63.647a.5.5,0,0,0,0,.707L28.663,78.637v20.2a.5.5,0,0,0,.5.5h20.2l14.283,14.284a.5.5,0,0,0,.708,0L78.637,99.337h20.2a.5.5,0,0,0,.5-.5v-20.2l14.285-14.283a.5.5,0,0,0,0-.707L99.337,49.363ZM112.561,64,98.484,78.077a.5.5,0,0,0-.147.353V98.337H78.43a.5.5,0,0,0-.353.147L64,112.56,49.923,98.484a.5.5,0,0,0-.353-.147H29.663V78.43a.5.5,0,0,0-.147-.353L15.44,64,29.516,49.923a.5.5,0,0,0,.147-.353V29.662H49.57a.5.5,0,0,0,.353-.146L64,15.44,78.077,29.516a.5.5,0,0,0,.353.146H98.337V49.57a.5.5,0,0,0,.147.353Z" fill="#020202"/><path d="M89.134,39.367a.5.5,0,0,0-.5-.5H74.411L64.354,28.809a.5.5,0,0,0-.708,0L53.589,38.867H39.367a.5.5,0,0,0-.5.5V53.59L28.81,63.646a.5.5,0,0,0,0,.707L38.867,74.41V88.634a.5.5,0,0,0,.5.5H53.589L63.646,99.191a.5.5,0,0,0,.708,0L74.411,89.134H88.634a.5.5,0,0,0,.5-.5V74.411L99.191,64.353a.5.5,0,0,0,0-.707L89.134,53.589ZM98.13,64l-9.85,9.85a.5.5,0,0,0-.146.354v13.93H74.2a.5.5,0,0,0-.354.146L64,98.13l-9.85-9.85a.5.5,0,0,0-.354-.146H39.867V74.2a.5.5,0,0,0-.147-.353L29.87,64l9.85-9.85a.5.5,0,0,0,.147-.353V39.867H53.8a.5.5,0,0,0,.354-.147L64,29.87l9.85,9.85a.5.5,0,0,0,.354.147h13.93V53.8a.5.5,0,0,0,.146.354Z" fill="#020202"/><path d="M85.158,43.343a.5.5,0,0,0-.5-.5H72.764l-8.41-8.411a.517.517,0,0,0-.708,0l-8.409,8.411H43.343a.5.5,0,0,0-.5.5V55.237l-8.41,8.409a.5.5,0,0,0,0,.707l8.41,8.411V84.658a.5.5,0,0,0,.5.5H55.237l8.409,8.41a.5.5,0,0,0,.708,0l8.41-8.41H84.658a.5.5,0,0,0,.5-.5V72.764l8.41-8.411a.5.5,0,0,0,0-.707l-8.41-8.41ZM92.507,64l-8.2,8.2a.5.5,0,0,0-.146.354v11.6h-11.6a.5.5,0,0,0-.354.146l-8.2,8.2-8.2-8.2a.5.5,0,0,0-.353-.146h-11.6v-11.6A.5.5,0,0,0,43.7,72.2l-8.2-8.2,8.2-8.2a.5.5,0,0,0,.147-.353v-11.6h11.6A.5.5,0,0,0,55.8,43.7l8.2-8.2,8.2,8.2a.5.5,0,0,0,.354.147h11.6v11.6a.5.5,0,0,0,.146.354Z" fill="#020202"/><path d="M64.354,51.665a.5.5,0,0,0-.708,0L51.665,63.647a.5.5,0,0,0,0,.707L63.646,76.336a.5.5,0,0,0,.708,0L76.336,64.354a.5.5,0,0,0,0-.707ZM64,75.275,52.725,64,64,52.725,75.275,64Z" fill="#020202"/></g></svg>
