<svg height="128" viewBox="0 0 128 128" width="128" xmlns="http://www.w3.org/2000/svg"><g fill="rgb(0,0,0)"><path d="m50.507 50.11a.5.5 0 0 0 .353-.147l2.94-2.937a.933.933 0 0 1 .66-.274h4.154a.5.5 0 0 0 .5-.5v-4.152a.944.944 0 0 1 .274-.662l2.934-2.938a.5.5 0 0 0 0-.707l-2.936-2.937a.944.944 0 0 1 -.274-.662v-4.155a.5.5 0 0 0 -.5-.5h-4.154a.937.937 0 0 1 -.661-.274l-2.937-2.937a.5.5 0 0 0 -.707 0l-2.938 2.937a.93.93 0 0 1 -.662.274h-4.153a.5.5 0 0 0 -.5.5v4.154a.936.936 0 0 1 -.274.661l-2.938 2.937a.5.5 0 0 0 0 .707l2.938 2.938a.926.926 0 0 1 .274.661v4.154a.5.5 0 0 0 .5.5h4.154a.93.93 0 0 1 .662.274l2.938 2.937a.5.5 0 0 0 .353.148zm-3.954-4.358h-3.653v-3.652a1.921 1.921 0 0 0 -.567-1.369l-2.584-2.583 2.584-2.584a1.95 1.95 0 0 0 .529-.99 1.926 1.926 0 0 0 .038-.379v-3.656h3.654a1.924 1.924 0 0 0 1.369-.567l2.585-2.583 2.582 2.582a1.945 1.945 0 0 0 1.369.568h3.654v3.654a1.947 1.947 0 0 0 .567 1.369l2.583 2.584-2.584 2.584a1.945 1.945 0 0 0 -.567 1.368v3.654h-3.654a1.944 1.944 0 0 0 -1.368.567l-2.583 2.581-2.585-2.584a1.924 1.924 0 0 0 -1.369-.564z"/><path d="m59.386 89.481a.946.946 0 0 1 -.274-.662v-4.154a.5.5 0 0 0 -.5-.5h-4.154a.938.938 0 0 1 -.661-.275l-2.937-2.937a.5.5 0 0 0 -.707 0l-2.938 2.937a.931.931 0 0 1 -.662.275h-4.153a.5.5 0 0 0 -.5.5v4.154a.927.927 0 0 1 -.274.661l-2.938 2.938a.5.5 0 0 0 0 .707l2.938 2.937a.93.93 0 0 1 .274.662v4.153a.5.5 0 0 0 .5.5h4.154a.931.931 0 0 1 .662.275l2.938 2.937a.5.5 0 0 0 .707 0l2.937-2.938a.942.942 0 0 1 .661-.274h4.154a.5.5 0 0 0 .5-.5v-4.153a.942.942 0 0 1 .274-.662l2.936-2.937a.5.5 0 0 0 0-.707zm-.708 5.874a1.926 1.926 0 0 0 -.566 1.369v3.653h-3.654a1.942 1.942 0 0 0 -1.368.568l-2.583 2.583-2.585-2.584a1.924 1.924 0 0 0 -1.369-.567h-3.653v-3.653a1.923 1.923 0 0 0 -.567-1.369l-2.584-2.584 2.584-2.583a1.923 1.923 0 0 0 .567-1.369v-3.654h3.654a1.925 1.925 0 0 0 1.369-.568l2.585-2.583 2.581 2.586a1.945 1.945 0 0 0 1.369.568h3.654v3.654a1.945 1.945 0 0 0 .567 1.368l2.583 2.584z"/><path d="m54.7 27.521a.5.5 0 0 0 .354.146h5a.937.937 0 0 1 .936.936v5a.5.5 0 0 0 .147.353l2.515 2.516a.5.5 0 0 0 .707 0l2.518-2.516a.5.5 0 0 0 .147-.353v-5a.936.936 0 0 1 .935-.936h4.995a.5.5 0 0 0 .354-.146l2.6-2.605a.5.5 0 0 0 0-.707l-2.608-2.609a.5.5 0 0 0 -.354-.147h-4.993a.936.936 0 0 1 -.935-.935v-4.991a.5.5 0 0 0 -.147-.353l-2.518-2.517a.514.514 0 0 0 -.707 0l-2.515 2.516a.5.5 0 0 0 -.147.353v5a.937.937 0 0 1 -.936.935h-5a.5.5 0 0 0 -.354.147l-2.6 2.605a.5.5 0 0 0 0 .707zm.561-5.064h4.788a1.938 1.938 0 0 0 1.936-1.935v-4.789l2.015-2.016 2.018 2.017v4.788a1.937 1.937 0 0 0 1.935 1.935h4.788l2.105 2.105-2.105 2.105h-4.788a1.938 1.938 0 0 0 -1.935 1.933v4.788l-2.018 2.02-2.016-2.017v-4.791a1.939 1.939 0 0 0 -1.936-1.936h-4.788l-2.1-2.105z"/><path d="m73.543 29.539h-4.154a.5.5 0 0 0 -.5.5v4.154a.944.944 0 0 1 -.274.662l-2.938 2.937a.5.5 0 0 0 0 .707l2.938 2.937a.944.944 0 0 1 .274.662v4.154a.5.5 0 0 0 .5.5h4.154a.937.937 0 0 1 .661.274l2.938 2.937a.5.5 0 0 0 .707 0l2.937-2.937a.93.93 0 0 1 .662-.274h4.152a.5.5 0 0 0 .5-.5v-4.152a.93.93 0 0 1 .274-.662l2.938-2.938a.5.5 0 0 0 0-.707l-2.936-2.938a.936.936 0 0 1 -.274-.661v-4.155a.5.5 0 0 0 -.5-.5h-4.154a.93.93 0 0 1 -.662-.274l-2.937-2.937a.5.5 0 0 0 -.707 0l-2.942 2.937a.933.933 0 0 1 -.657.274zm3.952-2.15 2.584 2.583a1.924 1.924 0 0 0 1.369.567h3.652v3.654a1.95 1.95 0 0 0 .567 1.369l2.583 2.584-2.583 2.583a1.921 1.921 0 0 0 -.567 1.371v3.654h-3.652a1.924 1.924 0 0 0 -1.369.567l-2.579 2.579-2.588-2.58a1.945 1.945 0 0 0 -1.369-.568h-3.654v-3.652a1.949 1.949 0 0 0 -.567-1.369l-2.585-2.583 2.585-2.585a1.943 1.943 0 0 0 .567-1.368v-3.656h3.654a1.944 1.944 0 0 0 1.368-.567z"/><path d="m86.376 62.02a.926.926 0 0 1 -.274-.661v-4.154a.5.5 0 0 0 -.5-.5h-4.154a.93.93 0 0 1 -.662-.274l-2.937-2.937a.5.5 0 0 0 -.707 0l-2.942 2.937a.941.941 0 0 1 -.661.273h-4.15a.5.5 0 0 0 -.5.5v4.154a.944.944 0 0 1 -.274.662l-2.938 2.937a.5.5 0 0 0 0 .707l2.937 2.936a.943.943 0 0 1 .275.663v4.153a.5.5 0 0 0 .5.5h4.154a.942.942 0 0 1 .661.274l2.938 2.938a.5.5 0 0 0 .707 0l2.937-2.937a.926.926 0 0 1 .662-.275h4.152a.5.5 0 0 0 .5-.5v-4.151a.934.934 0 0 1 .274-.663l2.936-2.937a.5.5 0 0 0 0-.707zm-.707 5.88a1.923 1.923 0 0 0 -.567 1.37v3.653h-3.654a1.924 1.924 0 0 0 -1.369.567l-2.579 2.579-2.584-2.583a1.942 1.942 0 0 0 -1.368-.568h-3.659v-3.653a1.931 1.931 0 0 0 -.567-1.37l-2.585-2.583 2.585-2.585a1.945 1.945 0 0 0 .567-1.368v-3.654h3.654a1.843 1.843 0 0 0 .378-.038 1.944 1.944 0 0 0 .99-.528l2.589-2.584 2.584 2.584a1.928 1.928 0 0 0 1.369.566h3.647v3.654a1.919 1.919 0 0 0 .567 1.369l2.583 2.584z"/><path d="m61.131 61.118 2.515 2.517a.5.5 0 0 0 .707 0l2.518-2.517a.5.5 0 0 0 .147-.353v-5a.936.936 0 0 1 .935-.935h4.995a.5.5 0 0 0 .354-.147l2.6-2.6a.5.5 0 0 0 0-.707l-2.6-2.6a.5.5 0 0 0 -.354-.146h-4.995a.936.936 0 0 1 -.935-.936v-5a.5.5 0 0 0 -.147-.354l-2.518-2.516a.514.514 0 0 0 -.707 0l-2.515 2.516a.5.5 0 0 0 -.147.354v5a.937.937 0 0 1 -.936.936h-5a.5.5 0 0 0 -.354.146l-2.6 2.6a.5.5 0 0 0 0 .707l2.6 2.6a.5.5 0 0 0 .354.147h5a.937.937 0 0 1 .936.935v5a.5.5 0 0 0 .147.353zm-1.083-7.284h-4.788l-2.1-2.105 2.1-2.1h4.788a1.939 1.939 0 0 0 1.936-1.936v-4.793l2.016-2.017 2.018 2.017v4.788a1.938 1.938 0 0 0 1.935 1.936h4.788l2.105 2.1-2.105 2.105h-4.788a1.937 1.937 0 0 0 -1.935 1.935v4.788l-2.018 2.022-2.016-2.017v-4.788a1.938 1.938 0 0 0 -1.936-1.935z"/><path d="m77.142 80.953-2.942 2.938a.938.938 0 0 1 -.66.274h-4.151a.5.5 0 0 0 -.5.5v4.154a.942.942 0 0 1 -.274.661l-2.938 2.938a.5.5 0 0 0 0 .707l2.937 2.936a.943.943 0 0 1 .275.663v4.153a.5.5 0 0 0 .5.5h4.154a.938.938 0 0 1 .661.275l2.938 2.937a.5.5 0 0 0 .707 0l2.937-2.937a.931.931 0 0 1 .662-.275h4.152a.5.5 0 0 0 .5-.5v-4.153a.93.93 0 0 1 .274-.662l2.936-2.937a.5.5 0 0 0 0-.707l-2.934-2.938a.927.927 0 0 1 -.274-.661v-4.154a.5.5 0 0 0 -.5-.5h-4.154a.931.931 0 0 1 -.662-.275l-2.937-2.937a.5.5 0 0 0 -.707 0zm4.306 4.212h3.652v3.654a1.919 1.919 0 0 0 .567 1.368l2.583 2.584-2.583 2.584a1.923 1.923 0 0 0 -.567 1.369v3.653h-3.652a1.921 1.921 0 0 0 -1.369.568l-2.579 2.583-2.584-2.583a1.942 1.942 0 0 0 -1.368-.568h-3.659v-3.653a1.927 1.927 0 0 0 -.567-1.369l-2.585-2.584 2.585-2.584a1.945 1.945 0 0 0 .567-1.368v-3.654h3.654a1.943 1.943 0 0 0 1.369-.568l2.588-2.583 2.579 2.586a1.925 1.925 0 0 0 1.369.565z"/><path d="m67.018 88.224v-5a.936.936 0 0 1 .935-.936h4.995a.5.5 0 0 0 .354-.147l2.75-2.751a.5.5 0 0 0 0-.707l-2.752-2.747a.5.5 0 0 0 -.354-.146h-4.993a.936.936 0 0 1 -.935-.936v-5a.5.5 0 0 0 -.147-.353l-2.518-2.517a.516.516 0 0 0 -.707 0l-2.515 2.517a.5.5 0 0 0 -.147.353v5a.937.937 0 0 1 -.936.936h-5a.5.5 0 0 0 -.354.146l-2.75 2.752a.5.5 0 0 0 0 .707l2.75 2.751a.5.5 0 0 0 .354.147h5a.937.937 0 0 1 .936.936v5a.5.5 0 0 0 .147.354l2.515 2.516a.5.5 0 0 0 .707 0l2.518-2.516a.5.5 0 0 0 .147-.359zm-1-5v4.788l-2.018 2.021-2.016-2.016v-4.788a1.939 1.939 0 0 0 -1.936-1.936h-4.788l-2.25-2.252 2.25-2.251h4.788a1.938 1.938 0 0 0 1.936-1.936v-4.788l2.016-2.016 2.018 2.016v4.788a1.937 1.937 0 0 0 1.935 1.936h4.788l2.25 2.251-2.25 2.252h-4.788a1.938 1.938 0 0 0 -1.935 1.936z"/><path d="m50.507 77.276a.5.5 0 0 0 .353-.146l2.94-2.938a.942.942 0 0 1 .661-.274h4.154a.5.5 0 0 0 .5-.5v-4.153a.946.946 0 0 1 .274-.663l2.936-2.937a.5.5 0 0 0 0-.707l-2.936-2.937a.944.944 0 0 1 -.274-.662v-4.154a.5.5 0 0 0 -.5-.5h-4.157a.937.937 0 0 1 -.661-.274l-2.937-2.937a.5.5 0 0 0 -.707 0l-2.938 2.937a.93.93 0 0 1 -.662.274h-4.153a.5.5 0 0 0 -.5.5v4.154a.93.93 0 0 1 -.274.662l-2.938 2.937a.5.5 0 0 0 0 .707l2.937 2.935a.934.934 0 0 1 .274.663v4.153a.5.5 0 0 0 .5.5h4.154a.926.926 0 0 1 .662.275l2.938 2.937a.5.5 0 0 0 .354.148zm-3.954-4.358h-3.653v-3.653a1.923 1.923 0 0 0 -.567-1.37l-2.584-2.583 2.584-2.584a1.919 1.919 0 0 0 .567-1.369v-3.654h3.654a1.928 1.928 0 0 0 1.369-.566l2.585-2.584 2.583 2.583a1.941 1.941 0 0 0 1.368.567h3.654v3.654a1.949 1.949 0 0 0 .567 1.369l2.583 2.584-2.585 2.588a1.926 1.926 0 0 0 -.566 1.369v3.653h-3.654a1.916 1.916 0 0 0 -.378.038 1.942 1.942 0 0 0 -.99.529l-2.583 2.584-2.585-2.584a1.924 1.924 0 0 0 -1.369-.571z"/><path d="m108.508 105.854h-11.018v-39.1a6.387 6.387 0 0 0 -1.885-4.482l-3.2-3.232c3.729-4.368 7.94-11.208 7.59-19.557-.471-11.4-11.968-17.79-21.229-22.937-2.672-1.475-7.085-4.628-8.42-5.592l-4.854-3.649a2.471 2.471 0 0 0 -2.973 0l-4.832 3.632c-.047.036-5.417 3.926-8.5 5.64-9.227 5.13-20.707 11.517-21.177 22.905-.351 8.368 3.86 15.2 7.59 19.558l-3.2 3.231a6.36 6.36 0 0 0 -1.894 4.482v39.1h-11.014a.5.5 0 0 0 -.5.5v14.347a.5.5 0 0 0 .5.5h89.016a.5.5 0 0 0 .5-.5v-14.346a.5.5 0 0 0 -.5-.5zm-77-39.1a5.366 5.366 0 0 1 1.605-3.779l3.521-3.56a.5.5 0 0 0 .02-.681c-3.679-4.2-7.993-10.943-7.646-19.21.449-10.824 11.657-17.064 20.716-22.104 3.1-1.721 8.542-5.667 8.567-5.687l4.831-3.633a1.47 1.47 0 0 1 1.768 0l4.91 3.7c1.3.94 5.755 4.121 8.5 5.635 9.018 5.013 20.243 11.251 20.69 22.092.347 8.248-3.968 15-7.647 19.21a.5.5 0 0 0 .021.681l3.53 3.559a5.391 5.391 0 0 1 1.6 3.779v39.1h-2.944v-39.1a2.471 2.471 0 0 0 -.744-1.712l-4.853-4.892a1.479 1.479 0 0 1 -.015-2.057c.276-.284.572-.6.874-.938.009-.009.016-.018.025-.028a30.894 30.894 0 0 0 5.422-8.294.476.476 0 0 0 .03-.07 21.3 21.3 0 0 0 1.772-7.965.5.5 0 0 0 0-.2c0-.319.013-.636 0-.96a12.364 12.364 0 0 0 -.683-3.551l-.008-.023c-2.3-6.587-9.864-11.23-16.695-15.058-.008 0-.013-.009-.021-.012-.607-.34-1.209-.674-1.8-1a103.475 103.475 0 0 1 -8.695-5.76l-3.859-2.893a.5.5 0 0 0 -.6 0l-3.7 2.781c-.95.686-5.841 4.2-8.843 5.871a87.833 87.833 0 0 0 -11.252 7.01 2.01 2.01 0 0 0 -.288.217.437.437 0 0 0 -.042.044c-3.165 2.516-5.751 5.4-6.939 8.793-.007.016-.011.031-.017.047a12.4 12.4 0 0 0 -.68 3.536c-.013.324 0 .641 0 .959a.479.479 0 0 0 0 .2 21.29 21.29 0 0 0 1.772 7.957.373.373 0 0 0 .031.071 30.884 30.884 0 0 0 5.421 8.3l.025.027c.3.334.6.652.872.936a1.48 1.48 0 0 1 -.015 2.061l-4.845 4.891a2.475 2.475 0 0 0 -.751 1.709v39.1h-2.939zm55.53 14.54h-4.791l-2.247-2.251 2.25-2.25h4.79a1.937 1.937 0 0 0 1.93-1.94v-4.783l2.019-2.019 1.561 1.568v18.847l-1.561 1.569-2.019-2.019v-4.783a1.937 1.937 0 0 0 -1.93-1.94zm4.3-14.3a.5.5 0 0 0 -.354-.148.5.5 0 0 0 -.353.147l-2.521 2.52a.5.5 0 0 0 -.146.353v4.99a.936.936 0 0 1 -.93.94h-5a.5.5 0 0 0 -.354.146l-2.75 2.75a.5.5 0 0 0 0 .707l2.75 2.75a.5.5 0 0 0 .354.147h5a.936.936 0 0 1 .93.94v4.99a.5.5 0 0 0 .146.354l2.527 2.52a.5.5 0 0 0 .353.147.5.5 0 0 0 .354-.147l1.2-1.212v2.74a.521.521 0 0 0 -.031.147.492.492 0 0 0 .031.156v2.735l-1.2-1.212a.5.5 0 0 0 -.354-.147.5.5 0 0 0 -.353.146l-2.521 2.517a.5.5 0 0 0 -.146.353v4.99a.936.936 0 0 1 -.93.94h-5a.5.5 0 0 0 -.354.146l-2.454 2.455h-3.474l-2.458-2.454a.5.5 0 0 0 -.354-.146h-5a.937.937 0 0 1 -.931-.94v-4.99a.5.5 0 0 0 -.146-.353l-2.52-2.521a.516.516 0 0 0 -.707 0l-2.515 2.52a.5.5 0 0 0 -.147.353v4.99a.937.937 0 0 1 -.93.94h-5a.5.5 0 0 0 -.354.146l-2.454 2.455h-3.474l-2.455-2.454a.5.5 0 0 0 -.353-.146h-5a.936.936 0 0 1 -.93-.94v-4.99a.5.5 0 0 0 -.146-.353l-2.521-2.521a.516.516 0 0 0 -.707 0l-1.206 1.206v-2.729a.465.465 0 0 0 .03-.156.487.487 0 0 0 -.03-.147v-2.734l1.206 1.21a.5.5 0 0 0 .707 0l2.521-2.519a.5.5 0 0 0 .146-.354v-4.99a.936.936 0 0 1 .93-.94h5a.5.5 0 0 0 .353-.147l2.75-2.75a.5.5 0 0 0 0-.707l-2.75-2.75a.5.5 0 0 0 -.353-.146h-5a.936.936 0 0 1 -.93-.94v-4.99a.5.5 0 0 0 -.146-.353l-2.521-2.52a.5.5 0 0 0 -.707 0l-1.206 1.206v-1.447a1.484 1.484 0 0 1 .465-1.009l4.839-4.888a2.485 2.485 0 0 0 .024-3.462c-.237-.244-.49-.515-.748-.8v-.823a.936.936 0 0 1 .93-.94h5a.5.5 0 0 0 .353-.147l2.6-2.6a.5.5 0 0 0 0-.706l-2.6-2.61a.5.5 0 0 0 -.354-.147h-5a.936.936 0 0 1 -.93-.94v-4.99a.5.5 0 0 0 -.146-.354l-2.521-2.52a.516.516 0 0 0 -.707 0l-2.519 2.52a.5.5 0 0 0 -.147.354v4.024a19.726 19.726 0 0 1 -1.05-5.827l2.395-2.388a.5.5 0 0 0 0-.708l-1.657-1.647a13.074 13.074 0 0 1 .84-1.807l2.141 2.133a.5.5 0 0 0 .353.146.5.5 0 0 0 .352-.145l2.521-2.511a.5.5 0 0 0 .147-.354v-5a.9.9 0 0 1 .2-.577h.006l.007-.007q.168-.133.339-.266a1.08 1.08 0 0 1 .375-.085h5a.5.5 0 0 0 .353-.147l2.6-2.6a.5.5 0 0 0 0-.706l-1.151-1.158q.848-.489 1.688-.961l.7.7a.5.5 0 0 0 .708 0l2.93-2.94a.945.945 0 0 1 .666-.273h4.15a.5.5 0 0 0 .5-.5v-3.099c.651-.459 1.183-.841 1.521-1.086l3.377-2.534 3.414 2.565.161.115c.448.321.885.633 1.315.936v3.1a.5.5 0 0 0 .5.5h4.15a.941.941 0 0 1 .665.273l2.931 2.94a.5.5 0 0 0 .708 0l.708-.708q.838.472 1.687.962l-1.153 1.16a.5.5 0 0 0 0 .706l2.6 2.6a.5.5 0 0 0 .354.147h5a.818.818 0 0 1 .4.107l.292.229a.89.89 0 0 1 .233.6v5a.5.5 0 0 0 .147.354l2.521 2.511a.5.5 0 0 0 .352.145.5.5 0 0 0 .353-.146l2.143-2.135a13.074 13.074 0 0 1 .84 1.807l-1.659 1.649a.5.5 0 0 0 0 .708l2.398 2.397a19.714 19.714 0 0 1 -1.05 5.827v-4.024a.5.5 0 0 0 -.147-.354l-2.519-2.52a.5.5 0 0 0 -.707 0l-2.521 2.52a.5.5 0 0 0 -.146.354v4.99a.936.936 0 0 1 -.93.94h-5a.5.5 0 0 0 -.355.147l-2.6 2.61a.5.5 0 0 0 0 .706l2.6 2.6a.5.5 0 0 0 .354.147h5a.936.936 0 0 1 .93.94v.827c-.259.284-.512.555-.75.8a2.484 2.484 0 0 0 .025 3.459l4.847 4.887a1.473 1.473 0 0 1 .458 1.011v1.443zm1.2 30.088v8.775h-11.9l1.6-1.6h4.802a1.937 1.937 0 0 0 1.93-1.94v-4.787l2.019-2.019zm-24.6 7.174h4.793l1.6 1.6h-20.675l1.6-1.6h4.794a1.937 1.937 0 0 0 1.93-1.94v-4.786l2.02-2.02 2.019 2.02v4.783a1.938 1.938 0 0 0 1.931 1.94zm-26.99 0h4.793l1.6 1.6h-11.891v-8.786l1.56-1.56 2.02 2.02v4.783a1.937 1.937 0 0 0 1.93 1.94zm0-27.46h4.793l2.259 2.247-2.25 2.25h-4.79a1.937 1.937 0 0 0 -1.93 1.94v4.783l-2.02 2.02-1.56-1.56v-18.866l1.56-1.56 2.02 2.02v4.783a1.937 1.937 0 0 0 1.93 1.94zm0-27.17h4.792l2.1 2.109-2.1 2.1h-4.78a1.929 1.929 0 0 0 -1.9 1.648 29.185 29.185 0 0 1 -4.317-6.853 1.917 1.917 0 0 0 .247-.945v-4.785l2.02-2.02 2.02 2.02v4.783a1.937 1.937 0 0 0 1.93 1.94zm-8-10.165a11.328 11.328 0 0 1 .371-2.252l.943.938zm2.093-6a21.8 21.8 0 0 1 3.979-4.432v4.371l-2.02 2.013zm7-6.793c1.542-1.094 3.176-2.12 4.821-3.09l.982.989-2.1 2.1zm8.308-5.079.676-.376-.525.527zm4.97-3c.973-.644 1.932-1.3 2.782-1.893v1.893zm14.562 0v-1.9c.992.691 1.93 1.33 2.79 1.9zm7.06 2.61.695.387-.155.155zm4.181 2.378c1.645.971 3.279 2 4.821 3.092h-3.7l-2.1-2.1zm7.848 9.823v-4.378a21.825 21.825 0 0 1 3.979 4.431l-1.959 1.955zm5.7 3.809a11.273 11.273 0 0 1 .369 2.254l-1.315-1.314zm-1.413 11.419a29.206 29.206 0 0 1 -4.317 6.853 1.929 1.929 0 0 0 -1.9-1.648h-4.793l-2.1-2.1 2.1-2.109h4.793a1.937 1.937 0 0 0 1.93-1.94v-4.784l2.02-2.02 2.02 2.02v4.783a1.928 1.928 0 0 0 .247.945zm14.751 71.572h-17.866c-.008 0-.014 0-.022 0h-52.24c-.008 0-.014 0-.022 0h-17.866v-13.346h88.016z"/></g></svg>